<svg width="785" height="1024" viewBox="0 0 785 1024" fill="none" xmlns="http://www.w3.org/2000/svg">
<g clip-path="url(#clip0_918_10783)">
<rect x="599" y="138" width="266" height="95" fill="#FBBB02" fill-opacity="0.12"/>
<rect x="523" y="207" width="303" height="100" transform="rotate(90 523 207)" fill="#FBBB02" fill-opacity="0.12"/>
<rect x="254" y="207" width="169" height="100" fill="#FBBB02" fill-opacity="0.12"/>
<rect x="254" y="510" width="402" height="100" fill="#FBBB02" fill-opacity="0.12"/>
<rect width="153" height="92" transform="matrix(-1 8.74728e-08 8.73727e-08 1 119 240)" fill="#FBBB02" fill-opacity="0.12"/>
<rect width="239" height="92" transform="matrix(-1 8.74728e-08 8.73727e-08 1 206 395)" fill="#FBBB02" fill-opacity="0.12"/>
<rect width="241" height="90" transform="matrix(-4.36918e-08 -1 -1 4.3731e-08 677 1024)" fill="#FBBB02" fill-opacity="0.12"/>
<rect width="149" height="89" transform="matrix(-1 8.74619e-08 8.73836e-08 1 825 783)" fill="#FBBB02" fill-opacity="0.12"/>
<rect width="234" height="89" transform="matrix(-1 8.74619e-08 8.73836e-08 1 910 935)" fill="#FBBB02" fill-opacity="0.12"/>
</g>
<defs>
<clipPath id="clip0_918_10783">
<rect width="785" height="1024" fill="white"/>
</clipPath>
</defs>
</svg>
