<svg width="1920" height="722" viewBox="0 0 1920 722" fill="none" xmlns="http://www.w3.org/2000/svg">
<rect x="1073" width="450" height="148" transform="rotate(90 1073 0)" fill="#FBBB02" fill-opacity="0.12"/>
<rect x="674" width="251" height="148" fill="#FBBB02" fill-opacity="0.12"/>
<rect x="674" y="450" width="596" height="148" fill="#FBBB02" fill-opacity="0.12"/>
<rect width="304" height="113" transform="matrix(-4.37523e-08 -1 -1 4.36705e-08 1665 722)" fill="#FBBB02" fill-opacity="0.12"/>
<rect width="188" height="113" transform="matrix(-1 8.7341e-08 8.75047e-08 1 1853 418)" fill="#FBBB02" fill-opacity="0.12"/>
<rect width="295" height="113" transform="matrix(-1 8.7341e-08 8.75047e-08 1 1960 609)" fill="#FBBB02" fill-opacity="0.12"/>
<rect width="288" height="107" transform="matrix(-4.36927e-08 -1 -1 4.373e-08 74 486)" fill="#FBBB02" fill-opacity="0.12"/>
<rect width="178" height="107" transform="matrix(-1 8.74601e-08 8.73855e-08 1 252 198)" fill="#FBBB02" fill-opacity="0.12"/>
<rect width="279" height="107" transform="matrix(-1 8.74601e-08 8.73855e-08 1 353 379)" fill="#FBBB02" fill-opacity="0.12"/>
<rect x="1553" width="400" height="142" fill="#FBBB02" fill-opacity="0.12"/>
</svg>
