<svg width="160" height="22" viewBox="0 0 160 22" fill="none" xmlns="http://www.w3.org/2000/svg">
<g clip-path="url(#clip0_3430_1282)">
<path d="M157.255 11.5429C156.792 12.3606 155.908 12.8473 154.981 12.8473C153.591 12.8473 152.433 11.7571 152.348 10.3942V10.3553C152.348 10.3164 152.348 10.2774 152.348 10.2385C152.348 9.79069 152.454 9.36237 152.685 8.97299C153.149 8.13582 154.033 7.61016 155.002 7.61016C155.95 7.61016 156.834 8.11635 157.319 8.95352L157.361 9.0314L159.446 8.25263L159.403 8.17476C158.582 6.50042 156.834 5.41016 154.918 5.41016C152.749 5.41016 150.853 6.75352 150.2 8.73936C150.053 9.20662 149.969 9.69334 149.969 10.1995C149.969 10.2579 149.969 10.3164 149.969 10.3748C150.074 12.9641 152.243 14.9694 154.918 14.9694C156.813 14.9694 158.498 13.9571 159.34 12.3217L159.382 12.2438L157.34 11.4845L157.255 11.5429Z" fill="#454545"/>
<path d="M114.125 9.26502H109.407C109.45 9.16768 109.492 9.0898 109.534 8.99246C109.997 8.15529 110.882 7.62963 111.85 7.62963C112.208 7.62963 112.545 7.68803 112.861 7.82432C113.451 8.13582 113.893 8.66148 114.125 9.26502ZM114.567 6.28626C114.483 6.22786 114.399 6.16945 114.293 6.11104C114.272 6.09157 114.251 6.09157 114.23 6.0721C114.167 6.03317 114.125 6.0137 114.062 5.97476L113.977 5.93582C113.872 5.87741 113.767 5.83847 113.683 5.79954C113.64 5.78007 113.619 5.78007 113.577 5.7606C113.514 5.74113 113.472 5.72166 113.409 5.70219C113.367 5.68272 113.346 5.68272 113.303 5.66325H113.282C113.198 5.64378 113.114 5.60485 113.03 5.58538C112.988 5.56591 112.924 5.56591 112.882 5.54644C112.84 5.52697 112.777 5.52697 112.735 5.5075C112.672 5.48803 112.608 5.48803 112.524 5.46856C112.482 5.46856 112.419 5.44909 112.377 5.44909C112.293 5.42963 112.208 5.42963 112.145 5.42963C112.103 5.42963 112.082 5.42963 112.04 5.42963C111.935 5.42963 111.829 5.41016 111.745 5.41016H111.724C111.598 5.41016 111.471 5.41016 111.324 5.42963H111.261C111.155 5.44909 111.05 5.44909 110.945 5.46856L110.861 5.48803C110.755 5.5075 110.65 5.52697 110.545 5.54644L110.481 5.56591C110.376 5.58538 110.271 5.62432 110.166 5.66325L110.123 5.68272C110.018 5.72166 109.913 5.7606 109.765 5.81901C108.691 6.26679 107.807 7.06502 107.28 8.07741L107.238 8.15529C107.133 8.34998 107.07 8.54467 106.986 8.75883C106.838 9.22609 106.754 9.71281 106.754 10.219C106.754 10.2774 106.754 10.3358 106.754 10.3942C106.775 10.8031 106.838 11.1925 106.965 11.5818L106.986 11.6792C107.049 11.8544 107.112 12.0491 107.217 12.2438C107.238 12.2827 107.259 12.3022 107.259 12.3411L107.301 12.419C107.407 12.5942 107.512 12.7889 107.638 12.9641L107.681 13.0031C107.807 13.1588 107.933 13.3341 108.081 13.4898L108.123 13.5287C108.165 13.5677 108.207 13.6261 108.27 13.665L108.291 13.6845C108.375 13.7624 108.481 13.8597 108.586 13.9376C108.607 13.9571 108.628 13.9765 108.649 13.9765C108.691 14.0155 108.755 14.0544 108.818 14.0933L108.86 14.1128C108.965 14.1712 109.049 14.2491 109.155 14.3075L109.218 14.3464C109.281 14.3854 109.323 14.4048 109.386 14.4438L109.45 14.4827C109.555 14.5217 109.639 14.5801 109.744 14.619C109.786 14.6385 109.808 14.6385 109.85 14.6579C109.913 14.6774 109.955 14.6969 110.018 14.7164C110.06 14.7358 110.102 14.7358 110.144 14.7553C110.229 14.7748 110.313 14.8137 110.397 14.8332C110.439 14.8526 110.503 14.8526 110.545 14.8721C110.587 14.8916 110.65 14.8916 110.692 14.911C110.755 14.9305 110.818 14.9305 110.903 14.95C110.945 14.95 111.008 14.9694 111.05 14.9694C111.134 14.9889 111.219 14.9889 111.282 14.9889C111.324 14.9889 111.345 14.9889 111.387 14.9889C111.492 14.9889 111.598 15.0084 111.703 15.0084C111.829 15.0084 111.956 15.0084 112.103 14.9889H112.166C112.272 14.9889 112.377 14.9694 112.482 14.95L112.566 14.9305C112.672 14.911 112.777 14.8916 112.882 14.8721L112.945 14.8526C113.051 14.8332 113.156 14.7942 113.261 14.7748L113.325 14.7553C113.43 14.7164 113.556 14.6774 113.64 14.6385H113.661C114.735 14.1907 115.62 13.3925 116.146 12.3801L116.189 12.3022L113.977 11.4066L113.935 11.4845C113.472 12.2827 112.587 12.7889 111.64 12.7889C111.282 12.7889 110.945 12.7305 110.629 12.5942C109.829 12.1854 109.407 11.6987 109.26 11.0172H116.378V10.9394C116.462 10.1995 116.568 7.64909 114.567 6.28626Z" fill="#454545"/>
<path d="M103.573 10.2387L103.531 10.3166C102.731 11.6794 101.362 12.4971 99.8879 12.4971C97.5081 12.4971 95.5706 10.3945 95.5706 7.8051C95.5706 5.21572 97.5081 3.11307 99.8879 3.11307C101.636 3.11307 103.194 4.24227 103.868 5.99448L103.91 6.07236L106.395 5.09891L106.353 5.02103C105.258 2.33431 102.71 0.601562 99.8879 0.601562C96.0129 0.601562 92.875 3.83342 92.875 7.78563C92.875 11.7573 96.0129 14.9697 99.8879 14.9697C102.352 14.9697 104.668 13.6069 105.932 11.4263L106.016 11.2901V11.2706L103.573 10.2387Z" fill="#454545"/>
<path d="M120.991 8.27241C121.476 7.92197 122.044 7.72728 122.655 7.72728C123.645 7.72728 124.571 8.25295 125.056 9.09011C125.287 9.47949 125.393 9.90781 125.393 10.3556C125.393 10.3945 125.393 10.414 125.393 10.4529V10.5114C125.351 11.2317 125.014 11.8742 124.445 12.3414C123.961 12.6919 123.392 12.8866 122.781 12.8866C121.792 12.8866 120.865 12.3609 120.381 11.5237C120.36 11.4848 120.338 11.4264 120.317 11.3875C120.149 11.037 120.044 10.6476 120.044 10.2583C120.044 10.2193 120.044 10.1804 120.044 10.1609V10.1025C120.065 9.77153 120.149 9.46002 120.296 9.14852C120.465 8.81755 120.718 8.52551 120.991 8.27241ZM127.625 8.85649C126.93 6.83171 125.119 5.50781 122.971 5.50781H122.908C122.908 5.50781 122.866 5.50781 122.823 5.50781H122.802C122.781 5.50781 121.265 5.52728 120.296 6.44233V5.74144H117.559V19.876H120.317V14.2105C120.444 14.3468 120.549 14.4246 120.549 14.4441H120.57C121.223 15.0087 122.276 15.106 122.866 15.106C125.582 15.0671 127.773 13.0229 127.878 10.4919C127.878 10.4335 127.878 10.3751 127.878 10.2972C127.878 9.82994 127.794 9.34321 127.625 8.85649Z" fill="#454545"/>
<path d="M134.869 8.91583C134.658 8.9937 134.532 9.01317 134.49 9.01317H134.048C133.942 9.01317 133.858 9.01317 133.858 9.01317H133.647H131.815V7.55299H134.511C134.532 7.55299 134.637 7.57246 134.785 7.63087C135.058 7.76715 135.269 8.02025 135.269 8.25388C135.248 8.58485 135.143 8.79901 134.869 8.91583ZM135.522 12.0309C135.501 12.4203 135.143 12.7123 134.806 12.8096C134.764 12.8291 134.7 12.8291 134.637 12.8486C134.406 12.8875 134.111 12.907 133.942 12.907H133.268C133.016 12.907 132.742 12.907 132.51 12.907H131.836V10.8043H132.51C132.742 10.8043 132.995 10.8043 133.268 10.8043H133.879C133.963 10.8043 134.427 10.8043 134.764 10.8822H134.785C134.806 10.8822 134.827 10.8822 134.827 10.9017C134.869 10.9017 134.89 10.9211 134.932 10.9406L134.953 10.9601C134.974 10.9795 135.016 10.9795 135.037 10.999C135.311 11.1548 135.501 11.4079 135.522 11.6804V11.6999C135.522 11.7388 135.522 11.8556 135.522 11.8556C135.522 11.8556 135.522 12.0114 135.522 12.0309ZM138.196 11.6804V11.661C138.175 11.0964 137.944 10.6096 137.501 10.2008L137.48 10.1813C137.312 10.0256 137.122 9.88928 136.87 9.73353C136.912 9.67512 136.975 9.59724 137.017 9.53883C137.48 9.14945 137.733 8.64326 137.733 8.1176C137.733 7.08574 136.596 6.01494 135.311 5.83972C134.932 5.82025 134.637 5.80078 134.511 5.80078C134.427 5.80078 134.384 5.80078 134.384 5.80078L129.141 5.82025V14.6787H131.71L132.973 14.6592H134.932C136.343 14.5618 137.564 13.7636 137.986 12.6539C138.091 12.3618 138.154 12.0698 138.154 11.7778C138.196 11.7388 138.196 11.6999 138.196 11.6804Z" fill="#454545"/>
<path d="M149.085 14.5813C149.064 14.5424 149.043 14.484 149.043 14.4256C149.043 14.4061 149.043 14.3866 149.022 14.3672L149.001 14.2698C148.916 13.7831 148.895 12.8291 148.874 12.1282V5.82025H146.2V10.2787C146.2 10.2787 146.2 10.3565 146.2 10.4928V10.5318C146.179 10.8822 146.094 11.5052 145.821 11.8946C145.42 12.4008 144.81 12.6928 144.157 12.6928C144.094 12.6928 144.03 12.6928 143.988 12.6928C143.63 12.6733 143.293 12.5565 143.02 12.3618C142.619 12.1087 142.346 11.7388 142.198 11.3105V11.291C142.156 11.1742 142.114 10.9211 142.072 10.5902V10.5707C142.072 10.4928 142.051 10.4344 142.051 10.3955V10.3565C141.924 8.64326 142.051 5.95653 142.051 5.9176V5.80078H139.439V5.89813C139.439 7.39724 139.461 10.0061 139.439 10.4928C139.461 11.0574 139.545 11.8751 139.819 12.6149C139.966 12.9459 140.155 13.2574 140.345 13.5105C140.387 13.5689 140.45 13.6273 140.492 13.6857C140.556 13.7441 140.619 13.8026 140.661 13.861C140.977 14.1725 141.377 14.4061 141.819 14.5813H141.84C142.051 14.6787 142.662 14.8928 143.567 14.8928H143.609C143.736 14.8928 143.841 14.8928 143.925 14.8733C143.988 14.8733 145.441 14.8539 146.41 13.822C146.452 14.2309 146.558 14.5229 146.684 14.6397L146.705 14.6592H149.169L149.085 14.5813Z" fill="#454545"/>
<path d="M30.7293 5.62494L31.0241 5.60547H28.5391L28.6444 5.62494H30.7293Z" fill="#8A8A8A"/>
<path d="M86.433 14.5797H88.9181L85.8644 6.07171L85.8012 5.89648H83.4215L83.3583 6.07171L80.3047 14.5797H82.8108L84.6219 8.99206L86.433 14.5797Z" fill="#8A8A8A"/>
<path d="M60.3828 14.5601H62.7415V11.7371L63.3733 11.0751L66.469 14.5601H69.3963L64.9738 9.40078L68.7224 5.85742H65.9215L62.7415 8.73884V5.85742H60.3828V14.5601Z" fill="#8A8A8A"/>
<path d="M44.692 11.271C44.671 11.31 44.6499 11.3684 44.6288 11.4073C44.1655 12.225 43.26 12.7701 42.2281 12.7701C41.5963 12.7701 41.0277 12.5754 40.5643 12.225C40.0168 11.7772 39.6588 11.1153 39.6167 10.3949C39.6167 10.3365 39.6167 10.2976 39.6167 10.2392C39.6167 9.7719 39.743 9.34358 39.9536 8.97367C40.4169 8.15597 41.3225 7.61084 42.3544 7.61084C42.9862 7.61084 43.5548 7.80553 44.0181 8.15597C44.313 8.3896 44.5446 8.70111 44.7131 9.03208C44.8605 9.32412 44.9447 9.63562 44.9658 9.98606C44.9658 10.0445 44.9658 10.0834 44.9658 10.1418C44.9658 10.5507 44.8605 10.94 44.692 11.271ZM42.1859 5.625C42.1649 5.625 42.1649 5.625 42.1859 5.625V5.625ZM44.692 5.85863V6.6958C44.692 6.67633 44.671 6.67633 44.671 6.65686C43.7654 5.64447 42.1649 5.625 42.1438 5.64447C42.1017 5.64447 42.0596 5.64447 42.0596 5.64447C39.8694 5.625 38.2267 6.96836 37.5949 8.81792C37.4475 9.24624 37.3633 9.73296 37.3633 10.2002C37.3633 10.2586 37.3633 10.317 37.3633 10.3754C37.4686 12.7896 39.5535 14.717 42.1228 14.756C42.7967 14.756 43.7233 14.6197 44.2919 14.1135C44.2919 14.1135 44.5235 13.9383 44.671 13.7046V14.5223H47.156V10.2002V5.85863H44.692Z" fill="#8A8A8A"/>
<path d="M76.3022 11.3279C76.2812 11.3668 76.2601 11.4252 76.2391 11.4642C75.7758 12.2818 74.8702 12.827 73.8593 12.827C73.2275 12.827 72.6589 12.6323 72.1956 12.2818C71.6481 11.8341 71.2901 11.1916 71.2479 10.4518C71.2479 10.3934 71.2479 10.3544 71.2479 10.296C71.2479 9.84822 71.3743 9.40043 71.5849 9.03052C72.0482 8.21282 72.9538 7.66769 73.9646 7.66769C74.5964 7.66769 75.165 7.86238 75.6283 8.21282C75.9232 8.44645 76.1548 8.75796 76.3233 9.08893C76.4707 9.38096 76.555 9.69247 76.576 10.0429C76.576 10.1013 76.576 10.1403 76.576 10.1987C76.555 10.588 76.4707 10.9774 76.3022 11.3279ZM76.3022 5.91548V6.73318C76.3022 6.71371 76.2812 6.71371 76.2812 6.69424C75.3967 5.68185 73.7751 5.68185 73.7751 5.68185C73.733 5.68185 73.6909 5.68185 73.6909 5.68185C71.5217 5.66238 69.858 7.00574 69.2473 8.8553C69.0999 9.28362 69.0156 9.75088 69.0156 10.2376C69.0156 10.296 69.0156 10.3544 69.0156 10.4128C69.1209 12.827 71.1848 14.7349 73.754 14.7934C74.4279 14.7934 75.3546 14.6571 75.9021 14.1509C75.9021 14.1509 76.1338 13.9757 76.2812 13.742V14.5597H78.7452V10.2376V5.91548H76.3022Z" fill="#8A8A8A"/>
<path d="M32.9193 11.1734C32.5402 11.7574 31.8663 12.1858 31.066 12.361H28.3704V7.76629L30.3921 7.74682H31.0239C31.0871 7.76629 31.1713 7.76629 31.2345 7.78576C31.6136 7.86363 31.9505 8.01939 32.2664 8.19461C32.835 8.60346 33.2141 9.207 33.2562 9.86894C33.2562 9.90788 33.2562 9.96629 33.2562 10.0052C33.2773 10.4335 33.1509 10.8229 32.9193 11.1734ZM35.9308 9.88841C35.8676 8.48664 35.0673 7.24063 33.867 6.46186C32.6666 5.52735 30.8554 5.56629 30.8554 5.56629H30.5606H28.4757H28.3704V5.54682V2.82116H34.1618V0.660095H26.0117V0.737971V2.80169V14.522H26.475H30.9186C31.0028 14.522 31.1292 14.522 31.2556 14.5026C33.3405 14.3663 35.0884 13.1008 35.6991 11.407C35.8466 10.9787 35.9308 10.5309 35.9308 10.0442C35.9308 10.0052 35.9308 9.94682 35.9308 9.88841Z" fill="#8A8A8A"/>
<path d="M58.423 14.2696C58.423 14.2502 58.423 14.2307 58.4019 14.2112C58.4019 14.1917 58.4019 14.1723 58.3809 14.1528C58.3809 14.1333 58.3809 14.1139 58.3809 14.1139C58.2966 13.6271 58.2756 12.7316 58.2545 11.9528V10.0838V5.74219H56.3381H55.7905V6.75458V7.43599V7.86431V8.93511V10.1227C55.7905 10.1227 55.7905 10.2006 55.7905 10.3369V10.3563C55.7695 10.7068 55.6852 11.3687 55.3904 11.7776C54.9903 12.2838 54.3585 12.6148 53.6425 12.6148C53.5793 12.6148 53.5161 12.6148 53.4529 12.6148C53.0738 12.5758 52.7158 12.459 52.421 12.2838C52.0209 12.0307 51.705 11.6413 51.5576 11.1935C51.5576 11.1935 51.5576 11.1935 51.5576 11.174C51.4944 11.0183 51.4523 10.6679 51.4312 10.4342C51.4101 10.3174 51.4101 10.2201 51.4101 10.2201C51.2838 8.46785 51.4101 5.78113 51.4101 5.78113L51.3259 5.76166H48.9883C48.9883 6.59882 49.0093 9.81121 48.9883 10.3563C49.0093 10.8625 49.0725 11.6997 49.3674 12.459C49.4937 12.751 49.6622 13.0625 49.8938 13.3351C49.936 13.3935 49.9781 13.4519 50.0413 13.5103C50.1044 13.5687 50.1676 13.6271 50.2097 13.6856C50.5046 13.9776 50.8626 14.2112 51.3259 14.3864H51.347C51.5365 14.4643 52.1472 14.6785 53.0738 14.6785C53.2002 14.6785 53.3055 14.6785 53.3897 14.659C53.3897 14.659 55.0113 14.6785 55.938 13.4519C55.959 13.7829 56.0222 14.2696 56.2117 14.4448H58.5072C58.4651 14.3864 58.444 14.328 58.423 14.2696Z" fill="#8A8A8A"/>
<path d="M55.1173 3.3847C54.8014 3.77408 54.2749 4.04665 53.6853 4.06612C53.0324 4.08559 52.4428 3.79355 52.1058 3.36523L50.8633 3.98824C51.3266 5.00063 52.4428 5.70152 53.7484 5.64311C54.9488 5.60417 55.9597 4.94223 56.3809 4.00771L55.1173 3.3847Z" fill="#8A8A8A"/>
<path d="M105.534 20.7522C105.429 20.8301 105.302 20.8885 105.155 20.8885C105.05 20.8885 104.965 20.869 104.902 20.8301C104.839 20.7911 104.797 20.7327 104.797 20.6549C104.797 20.4991 104.902 20.4212 105.134 20.4212H105.66V20.4407C105.681 20.5575 105.639 20.6743 105.534 20.7522ZM106.06 19.2141C105.871 19.0389 105.618 18.961 105.281 18.961C104.839 18.961 104.481 19.1168 104.207 19.4283L104.565 19.8177C104.67 19.7009 104.776 19.623 104.881 19.5841C104.986 19.5256 105.092 19.5062 105.218 19.5062C105.365 19.5062 105.492 19.5451 105.555 19.6035C105.639 19.6814 105.681 19.7787 105.681 19.8956V19.9929H105.071C104.776 19.9929 104.565 20.0513 104.397 20.1681C104.228 20.2849 104.144 20.4407 104.144 20.6549C104.144 20.8495 104.228 21.0248 104.376 21.1416C104.523 21.2584 104.734 21.3363 105.007 21.3363C105.323 21.3363 105.576 21.2389 105.766 21.0637V21.2779H106.376V19.915C106.355 19.623 106.25 19.3699 106.06 19.2141ZM101.006 20.9858C101.28 21.2195 101.575 21.3363 101.954 21.3363C102.185 21.3363 102.396 21.2779 102.586 21.1805C102.775 21.0832 102.923 20.9469 103.028 20.7522L102.565 20.4212C102.396 20.6354 102.207 20.7522 101.975 20.7522C101.785 20.7522 101.638 20.6938 101.512 20.577C101.385 20.4602 101.322 20.3044 101.322 20.1292C101.322 19.954 101.385 19.7982 101.512 19.6814C101.638 19.5646 101.785 19.5062 101.975 19.5062C102.207 19.5062 102.396 19.623 102.565 19.8372L103.028 19.5062C102.796 19.1363 102.438 18.9416 101.954 18.9416C101.575 18.9416 101.28 19.0584 101.006 19.292C100.753 19.5256 100.627 19.7982 100.627 20.1487C100.627 20.4796 100.753 20.7522 101.006 20.9858ZM98.2262 20.0903C98.1209 20.0903 98.0367 20.0708 97.9735 20.0124C97.9104 19.954 97.8682 19.8956 97.8682 19.7982C97.8682 19.7203 97.8893 19.6425 97.9735 19.6035C98.0367 19.5451 98.1209 19.5257 98.2262 19.5257H98.6474V20.0903H98.2262ZM97.4681 19.2141C97.2786 19.3504 97.1943 19.5451 97.1943 19.7982C97.1943 19.954 97.2364 20.1097 97.3417 20.2265C97.426 20.3433 97.5734 20.4407 97.7208 20.4991L97.0258 21.2973H97.784L98.3947 20.5964H98.6685V21.2973H99.3424V19H98.2262C97.9104 19 97.6576 19.0779 97.4681 19.2141ZM94.7093 20.7717C94.5198 20.7717 94.3723 20.7133 94.246 20.5964C94.1196 20.4796 94.0564 20.3239 94.0564 20.1487C94.0564 19.9734 94.1196 19.8177 94.246 19.7009C94.3723 19.5841 94.5198 19.5257 94.7093 19.5257C94.8988 19.5257 95.0462 19.5841 95.1726 19.7009C95.299 19.8177 95.3621 19.9734 95.3621 20.1487C95.3621 20.3239 95.299 20.4796 95.1726 20.5964C95.0462 20.7133 94.8988 20.7717 94.7093 20.7717ZM93.7616 20.9858C94.0143 21.2195 94.3302 21.3363 94.7093 21.3363C95.0673 21.3363 95.3832 21.2195 95.657 20.9858C95.9307 20.7522 96.0571 20.4602 96.0571 20.1292C96.0571 19.7982 95.9307 19.5256 95.678 19.2726C95.4043 19.0389 95.0884 18.9221 94.7304 18.9221C94.3723 18.9221 94.0564 19.0389 93.7827 19.2726C93.5089 19.5062 93.3825 19.7982 93.4036 20.1292C93.3825 20.4602 93.5089 20.7522 93.7616 20.9858ZM90.5184 21.2973V19.5257H91.4029V21.2973H92.0768V19H89.8445V21.2973H90.5184ZM84.8534 19.5841C84.9587 19.5062 85.0851 19.4672 85.2325 19.4672C85.3799 19.4672 85.5062 19.5062 85.6115 19.6035C85.7168 19.6814 85.759 19.7982 85.759 19.9345H84.6428C84.6639 19.7787 84.7481 19.6619 84.8534 19.5841ZM86.4118 20.0124C86.4118 19.7009 86.3065 19.4478 86.0749 19.2531C85.8643 19.0584 85.5694 18.9416 85.2325 18.9416C84.8745 18.9416 84.5586 19.0584 84.3058 19.292C84.0531 19.5256 83.9268 19.8177 83.9268 20.1487C83.9268 20.4796 84.0531 20.7717 84.3058 21.0053C84.5796 21.2389 84.8955 21.3557 85.2746 21.3557C85.6326 21.3557 85.9696 21.2389 86.2644 21.0053L85.9906 20.577C85.78 20.7327 85.5484 20.8106 85.2956 20.8106C85.1061 20.8106 84.9587 20.7717 84.8323 20.6938C84.706 20.6159 84.6217 20.4991 84.5796 20.3628H86.3065C86.3908 20.246 86.4118 20.1292 86.4118 20.0124ZM80.2203 20.1876H80.6415C80.7468 20.1876 80.8521 20.2071 80.9153 20.2655C80.9784 20.3239 81.0205 20.3823 81.0205 20.4796C81.0205 20.6743 80.8942 20.7522 80.6625 20.7522H80.2413V20.1876H80.2203ZM82.6632 19H81.9893V21.2973H82.6632V19ZM80.6836 21.2973C80.9784 21.2973 81.2311 21.2195 81.4207 21.0832C81.6102 20.9469 81.7155 20.7327 81.7155 20.4796C81.7155 20.2265 81.6102 20.0318 81.4207 19.8956C81.2311 19.7593 80.9784 19.6814 80.6836 19.6814H80.2413V19.0195H79.5674V21.3168H80.6836V21.2973ZM77.2719 20.8301H76.6612V20.3239H77.2719C77.3772 20.3239 77.4615 20.3433 77.5247 20.3823C77.5878 20.4212 77.6089 20.4796 77.6089 20.5575C77.6089 20.6354 77.5878 20.6938 77.5247 20.7522C77.4615 20.8106 77.3772 20.8301 77.2719 20.8301ZM77.1456 19.4672C77.3351 19.4672 77.4404 19.5451 77.4404 19.6814C77.4404 19.8177 77.3351 19.8956 77.1456 19.8956H76.6823V19.4672H77.1456ZM77.8616 20.0708C77.988 19.954 78.0722 19.8177 78.0722 19.6425C78.0722 19.4478 77.988 19.292 77.8195 19.1752C77.651 19.0584 77.4404 19 77.1877 19H76.0294V21.2973H77.3562C77.6089 21.2973 77.8195 21.2389 77.988 21.1026C78.1564 20.9664 78.2407 20.8106 78.2407 20.5964C78.2407 20.3433 78.1143 20.1681 77.8616 20.0708ZM73.418 20.7717C73.2285 20.7717 73.0811 20.7133 72.9547 20.5964C72.8284 20.4796 72.7652 20.3239 72.7652 20.1487C72.7652 19.9734 72.8284 19.8177 72.9547 19.7009C73.0811 19.5841 73.2285 19.5257 73.418 19.5257C73.6076 19.5257 73.755 19.5841 73.8813 19.7009C74.0077 19.8177 74.0709 19.9734 74.0709 20.1487C74.0709 20.3239 74.0077 20.4796 73.8813 20.5964C73.755 20.7133 73.6076 20.7717 73.418 20.7717ZM72.4704 20.9858C72.7231 21.2195 73.039 21.3363 73.418 21.3363C73.776 21.3363 74.0919 21.2195 74.3657 20.9858C74.6395 20.7522 74.7658 20.4602 74.7658 20.1292C74.7658 19.7982 74.6395 19.5256 74.3868 19.2726C74.113 19.0389 73.7971 18.9221 73.4391 18.9221C73.0811 18.9221 72.7652 19.0389 72.4914 19.2726C72.2176 19.5062 72.0913 19.7982 72.1123 20.1292C72.0913 20.4602 72.2176 20.7522 72.4704 20.9858ZM69.0166 20.9858C69.2904 21.2195 69.5852 21.3363 69.9643 21.3363C70.1959 21.3363 70.4065 21.2779 70.5961 21.1805C70.7856 21.0832 70.933 20.9469 71.0383 20.7522L70.575 20.4212C70.4065 20.6354 70.217 20.7522 69.9853 20.7522C69.7958 20.7522 69.6484 20.6938 69.522 20.577C69.3956 20.4602 69.3325 20.3044 69.3325 20.1292C69.3325 19.954 69.3956 19.7982 69.522 19.6814C69.6484 19.5646 69.7958 19.5062 69.9853 19.5062C70.217 19.5062 70.4065 19.623 70.575 19.8372L71.0383 19.5062C70.8066 19.1363 70.4486 18.9416 69.9643 18.9416C69.5852 18.9416 69.2904 19.0584 69.0166 19.292C68.7639 19.5256 68.6375 19.7982 68.6375 20.1487C68.6164 20.4796 68.7428 20.7522 69.0166 20.9858ZM66.5315 20.7522C66.4263 20.8301 66.2999 20.8885 66.1525 20.8885C66.0472 20.8885 65.9629 20.869 65.8998 20.8301C65.8366 20.7911 65.7945 20.7327 65.7945 20.6549C65.7945 20.4991 65.8998 20.4212 66.1314 20.4212H66.6579V20.4407C66.679 20.5575 66.6368 20.6743 66.5315 20.7522ZM67.0791 19.2141C66.8896 19.0389 66.6368 18.961 66.2999 18.961C65.8576 18.961 65.4996 19.1168 65.2258 19.4283L65.5839 19.8177C65.6892 19.7009 65.7945 19.623 65.8998 19.5841C66.0051 19.5256 66.1104 19.5062 66.2367 19.5062C66.3841 19.5062 66.5105 19.5451 66.5737 19.6035C66.6579 19.6814 66.7 19.7787 66.7 19.8956V19.9929H66.0893C65.7945 19.9929 65.5839 20.0513 65.4154 20.1681C65.2469 20.2849 65.1627 20.4407 65.1627 20.6549C65.1627 20.8495 65.2469 21.0248 65.3943 21.1416C65.5417 21.2584 65.7523 21.3363 66.0261 21.3363C66.342 21.3363 66.5947 21.2389 66.7843 21.0637V21.2779H67.395V19.915C67.3739 19.623 67.2686 19.3699 67.0791 19.2141ZM63.1831 19.9345C63.0778 19.9734 62.9514 19.9929 62.7829 19.9929C62.467 19.9929 62.2986 19.8372 62.2986 19.5062V18.9805H61.6247V19.5451C61.6247 19.8566 61.7089 20.1097 61.8984 20.2849C62.0669 20.4602 62.3196 20.538 62.6566 20.538C62.8882 20.538 63.0567 20.5186 63.1831 20.4602V21.2584H63.857V18.961H63.1831V19.9345ZM57.0758 20.0903C56.9705 20.0903 56.8862 20.0708 56.8231 20.0124C56.7599 19.954 56.7178 19.8956 56.7178 19.7982C56.7178 19.7203 56.7388 19.6425 56.8231 19.6035C56.8862 19.5451 56.9705 19.5257 57.0758 19.5257H57.497V20.0903H57.0758ZM56.3176 19.2141C56.1281 19.3504 56.0439 19.5451 56.0439 19.7982C56.0439 19.954 56.086 20.1097 56.1913 20.2265C56.2755 20.3433 56.4229 20.4407 56.5704 20.4991L55.8754 21.2973H56.6335L57.2443 20.5964H57.518V21.2973H58.1919V19H57.0758C56.7388 19 56.5072 19.0779 56.3176 19.2141ZM53.5588 20.0903C53.4535 20.0903 53.3693 20.0708 53.3061 20.0124C53.2429 19.954 53.2008 19.8956 53.2008 19.7982C53.2008 19.7203 53.2429 19.6425 53.3061 19.6035C53.3693 19.5451 53.4535 19.5257 53.5588 19.5257H53.98V20.0903H53.5588ZM52.8007 19.2141C52.6111 19.3504 52.5269 19.5451 52.5269 19.7982C52.5269 19.954 52.569 20.1097 52.6743 20.2265C52.7586 20.3433 52.906 20.4407 53.0534 20.4991L52.3584 21.2973H53.1166L53.7273 20.5964H54.0011V21.2973H54.675V19H53.5378C53.2219 19 52.9692 19.0779 52.8007 19.2141ZM49.5364 21.2973V20.3823H50.442V21.2973H51.1159V19H50.442V19.8372H49.5364V19H48.8625V21.2973H49.5364ZM45.8089 20.246V19H45.135V21.3363H45.3456L46.7355 20.0318V21.2779H47.4094V18.9416H47.1988L45.8089 20.246ZM42.0813 19.6619V19.5257H42.7974V20.7522H41.8497C41.976 20.5186 42.0603 20.1487 42.0813 19.6619ZM43.4713 19H41.4917L41.4706 19.5646C41.4496 19.8956 41.4285 20.1681 41.3864 20.3433C41.3443 20.538 41.26 20.6743 41.1758 20.7522H40.902V21.9398H41.5549V21.2973H43.2396V21.9398H43.8925V20.7522H43.4923V19H43.4713ZM38.417 19.5841C38.5223 19.5062 38.6486 19.4672 38.796 19.4672C38.9435 19.4672 39.0698 19.5062 39.1751 19.6035C39.2804 19.6814 39.3225 19.7982 39.3225 19.9345H38.2064C38.2485 19.7787 38.3117 19.6619 38.417 19.5841ZM39.9964 20.0124C39.9964 19.7009 39.8911 19.4478 39.6595 19.2531C39.4489 19.0584 39.1541 18.9416 38.8171 18.9416C38.4591 18.9416 38.1432 19.0584 37.8905 19.292C37.6378 19.5256 37.5114 19.8177 37.5114 20.1487C37.5114 20.4796 37.6378 20.7717 37.8905 21.0053C38.1643 21.2389 38.4802 21.3557 38.8592 21.3557C39.2172 21.3557 39.5542 21.2389 39.849 21.0053L39.5752 20.577C39.3647 20.7327 39.133 20.8106 38.8803 20.8106C38.6907 20.8106 38.5433 20.7717 38.417 20.6938C38.2906 20.6159 38.2064 20.4991 38.1643 20.3628H39.8911C39.9754 20.246 39.9964 20.1292 39.9964 20.0124ZM34.9 20.1876H35.3212C35.4265 20.1876 35.5107 20.2071 35.595 20.2655C35.6582 20.3239 35.7003 20.3823 35.7003 20.4796C35.7003 20.577 35.6582 20.6354 35.595 20.6938C35.5318 20.7327 35.4476 20.7717 35.3212 20.7717H34.9V20.1876ZM35.3633 21.2973C35.6582 21.2973 35.9109 21.2195 36.1004 21.0832C36.29 20.9274 36.3953 20.7327 36.3953 20.4796C36.3953 20.2265 36.29 20.0318 36.1004 19.8956C35.9109 19.7593 35.6582 19.6814 35.3633 19.6814H34.9211V19.0195H33.6575V19.5451H34.2682V21.3168H35.3633V21.2973ZM31.7621 20.5964C31.6358 20.7133 31.4884 20.7717 31.3199 20.7717C31.1514 20.7717 30.9829 20.7133 30.8776 20.5964C30.7513 20.4796 30.6881 20.3433 30.6881 20.1876C30.6881 20.0318 30.7513 19.8956 30.8776 19.7787C31.004 19.6619 31.1514 19.6035 31.3199 19.6035C31.5094 19.6035 31.6568 19.6619 31.7621 19.7787C31.8885 19.8956 31.9517 20.0318 31.9517 20.1876C31.9306 20.3433 31.8674 20.4796 31.7621 20.5964ZM32.2886 19.3699C32.057 19.1557 31.7832 19.0389 31.4673 19.0389C31.0882 19.0389 30.7934 19.1752 30.6039 19.4283C30.6039 19.2531 30.6249 19.1168 30.667 19.0195C30.6881 18.9221 30.7513 18.8248 30.8355 18.7469C30.9198 18.669 31.0251 18.6106 31.1514 18.5522C31.2778 18.5133 31.4673 18.4743 31.6779 18.4549C32.057 18.4159 32.2886 18.377 32.415 18.338V17.7734C32.2676 17.8124 32.0359 17.8513 31.6779 17.9097C31.3409 17.9487 31.0672 18.0071 30.8355 18.1044C30.6249 18.1823 30.4564 18.2991 30.3301 18.4549C30.2037 18.6106 30.1195 18.7664 30.0774 18.961C30.0353 19.1363 30.0142 19.3699 29.9931 19.6425V19.9929C29.9931 20.4018 30.1195 20.7327 30.3511 20.9858C30.6039 21.2389 30.9198 21.3557 31.3199 21.3557C31.699 21.3557 32.0149 21.2389 32.2676 21.0248C32.5203 20.8106 32.6466 20.538 32.6466 20.1876C32.6256 19.8566 32.5203 19.5841 32.2886 19.3699ZM27.466 20.7717C27.2764 20.7717 27.129 20.7133 27.0027 20.5964C26.8763 20.4796 26.8131 20.3239 26.8131 20.1487C26.8131 19.9734 26.8763 19.8177 27.0027 19.7009C27.129 19.5841 27.2764 19.5257 27.466 19.5257C27.6555 19.5257 27.8029 19.5841 27.9293 19.7009C28.0556 19.8177 28.1188 19.9734 28.1188 20.1487C28.1188 20.3239 28.0556 20.4796 27.9293 20.5964C27.8029 20.7133 27.6345 20.7717 27.466 20.7717ZM26.5183 20.9858C26.771 21.2195 27.0869 21.3363 27.466 21.3363C27.824 21.3363 28.1399 21.2195 28.4137 20.9858C28.6874 20.7522 28.8138 20.4602 28.8138 20.1292C28.8138 19.7982 28.6874 19.5256 28.4347 19.2726C28.1609 19.0389 27.8451 18.9221 27.487 18.9221C27.129 18.9221 26.8131 19.0389 26.5394 19.2726C26.2656 19.5062 26.1392 19.7982 26.1603 20.1292C26.1182 20.4602 26.2445 20.7522 26.5183 20.9858Z" fill="#8A8A8A"/>
<path d="M16.22 21.7663H1.47825C0.993883 21.7663 0.59375 21.3963 0.59375 20.9486C0.59375 20.5008 0.993883 20.1309 1.47825 20.1309H16.22C16.7043 20.1309 17.1045 20.5008 17.1045 20.9486C17.1045 21.4158 16.7043 21.7663 16.22 21.7663Z" fill="#8A8A8A"/>
<path d="M17.1049 1.28313C17.1049 1.49729 16.9154 1.69198 16.6627 1.69198H15.7782C15.5465 1.69198 15.3359 1.51676 15.3359 1.28313V0.445959C15.3359 0.2318 15.5255 0.0371094 15.7782 0.0371094H16.6838C16.9154 0.0371094 17.126 0.212331 17.126 0.445959V1.28313H17.1049Z" fill="#8A8A8A"/>
<path d="M2.34212 1.28319C2.34212 1.49735 2.15259 1.67257 1.92093 1.67257H1.03643C0.804771 1.67257 0.615234 1.49735 0.615234 1.28319V0.446021C0.615234 0.231862 0.804771 0.0566406 1.03643 0.0566406H1.92093C2.15259 0.0566406 2.34212 0.231862 2.34212 0.446021V1.28319Z" fill="#8A8A8A"/>
<path d="M1.47825 13.0437C0.993883 13.0437 0.59375 12.6738 0.59375 12.226V3.09504C0.59375 2.64726 0.993883 2.27734 1.47825 2.27734C1.96262 2.27734 2.36276 2.64726 2.36276 3.09504V12.226C2.3417 12.6738 1.96262 13.0437 1.47825 13.0437Z" fill="#8A8A8A"/>
<path d="M16.24 13.0437C15.7556 13.0437 15.3555 12.6738 15.3555 12.226V3.09504C15.3555 2.64726 15.7556 2.27734 16.24 2.27734C16.7243 2.27734 17.1245 2.64726 17.1245 3.09504V12.226C17.1034 12.6738 16.7243 13.0437 16.24 13.0437Z" fill="#8A8A8A"/>
<path d="M13.7771 1.67251H3.90013C3.41576 1.67251 3.01562 1.3026 3.01562 0.854809C3.01562 0.407021 3.41576 0.0371094 3.90013 0.0371094H13.7771C14.2615 0.0371094 14.6616 0.407021 14.6616 0.854809C14.6616 1.3026 14.2615 1.67251 13.7771 1.67251Z" fill="#8A8A8A"/>
<path d="M17.1058 14.0534C17.1058 13.8393 16.9163 13.6641 16.6846 13.6641H15.8001C15.5684 13.6641 15.3789 13.8393 15.3789 14.0534V14.8711C15.3789 15.0853 15.5684 15.2605 15.8001 15.2605H16.6846C16.9163 15.2605 17.1058 15.0853 17.1058 14.8711V14.0534Z" fill="#8A8A8A"/>
<path d="M2.36276 14.0555C2.36276 13.8413 2.17322 13.6466 1.92051 13.6466H1.036C0.804346 13.6466 0.59375 13.8218 0.59375 14.0555V14.8732C0.59375 15.0873 0.783286 15.282 1.036 15.282H1.92051C2.15216 15.282 2.36276 15.1068 2.36276 14.8732V14.0555Z" fill="#8A8A8A"/>
<path d="M13.7771 13.6641H3.90013C3.41576 13.6641 3.01562 14.034 3.01562 14.4818C3.01562 14.9296 3.41576 15.2995 3.90013 15.2995H13.7771C14.2615 15.2995 14.6616 14.9296 14.6616 14.4818C14.6616 14.0145 14.2615 13.6641 13.7771 13.6641Z" fill="#8A8A8A"/>
<path d="M13.8415 13.0033C13.6309 13.0033 13.4204 12.9254 13.2729 12.7891L3.29068 3.58029C2.97479 3.28826 2.95373 2.80153 3.26962 2.49003C3.58552 2.17852 4.11201 2.17852 4.4279 2.47056L14.4102 11.6794C14.726 11.9714 14.7471 12.4582 14.4312 12.7697C14.2627 12.9254 14.0521 13.0033 13.8415 13.0033Z" fill="#8A8A8A"/>
<path d="M3.85918 13.0033C3.64858 13.0033 3.43798 12.9254 3.26951 12.7697C2.95361 12.4582 2.95361 11.9714 3.29057 11.6794L13.2728 2.47056C13.5887 2.17852 14.1152 2.17852 14.4311 2.49003C14.747 2.80153 14.747 3.28826 14.41 3.58029L4.42779 12.7697C4.28037 12.9254 4.06977 13.0033 3.85918 13.0033Z" fill="#8A8A8A"/>
</g>
<defs>
<clipPath id="clip0_3430_1282">
<rect width="159" height="22" fill="white" transform="translate(0.5)"/>
</clipPath>
</defs>
</svg>
