<svg width="120" height="21" viewBox="0 0 120 21" fill="none" xmlns="http://www.w3.org/2000/svg">
<g clip-path="url(#clip0_746_57)">
<path d="M12.4262 9.48633C13.3322 9.91797 14.0432 10.5332 14.5593 11.332C15.0753 12.1309 15.3333 13.0508 15.3333 14.0938C15.3333 14.8477 15.1797 15.5527 14.8724 16.209C14.5632 16.8633 14.1338 17.4336 13.5804 17.9199C13.0289 18.4043 12.377 18.7812 11.6246 19.0508C10.8742 19.3203 10.0529 19.4551 9.16666 19.4551H0.417969V0.595703H9.00319C9.85403 0.595703 10.634 0.716797 11.3391 0.958984C12.0461 1.20117 12.6626 1.53711 13.1865 1.96875C13.7124 2.40039 14.12 2.9082 14.4096 3.49219C14.6991 4.07422 14.8448 4.7168 14.8448 5.41797C14.8448 6.2793 14.6282 7.06641 14.1929 7.77539C13.7577 8.48438 13.1688 9.05469 12.4262 9.48633ZM46.3338 14.9922V19.3828H42.8556C41.2071 19.3828 39.9249 18.9258 39.0111 18.0078C38.0972 17.0918 37.6383 15.8184 37.6383 14.1836V8.6875H34.9499V7.52734L41.5242 0.576172H42.5562V4.83398L42.6921 13.3203C42.6921 13.8418 42.8418 14.25 43.1412 14.5469C43.4386 14.8438 43.8522 14.9922 44.3761 14.9922H46.3338ZM9.87372 6.2793C9.87372 5.79492 9.71419 5.40039 9.40103 5.09375C9.08591 4.78906 8.65064 4.63672 8.08932 4.63672H5.4718V7.92383H8.08932C8.65064 7.92383 9.08591 7.77148 9.40103 7.46484C9.71419 7.16016 9.87372 6.76562 9.87372 6.2793ZM8.30597 15.2246C8.86729 15.2246 9.31634 15.0625 9.65904 14.7344C9.99977 14.4121 10.1711 13.9941 10.1711 13.4863C10.1711 12.9805 9.99977 12.5625 9.65904 12.2383C9.31634 11.9102 8.86729 11.75 8.30597 11.75H5.4718V15.2246H8.30597ZM32.9666 12.0449C32.9666 12.2617 32.9567 12.4766 32.939 12.6914C32.9213 12.9082 32.8937 13.1328 32.8582 13.3652H21.9627C22.1262 14.209 22.465 14.8438 22.981 15.2656C23.497 15.6875 24.1548 15.8984 24.9505 15.8984C25.5493 15.8984 26.0791 15.7773 26.54 15.5352C27.0028 15.293 27.3612 14.9551 27.6134 14.5234H32.6396C32.3875 15.3496 32.0153 16.0996 31.5268 16.7734C31.0364 17.4473 30.4613 18.0176 29.8015 18.4844C29.1397 18.9512 28.3972 19.3105 27.574 19.5625C26.7487 19.8145 25.8742 19.9395 24.9505 19.9395C23.8102 19.9395 22.7545 19.7422 21.7855 19.3477C20.8165 18.9512 19.9755 18.4082 19.2586 17.7168C18.5436 17.0254 17.9862 16.209 17.5884 15.2656C17.1906 14.3223 16.9916 13.293 16.9916 12.1797C16.9916 11.0664 17.1906 10.0332 17.5884 9.08203C17.9862 8.13086 18.5397 7.30859 19.2468 6.61719C19.9518 5.92578 20.7948 5.38672 21.7717 5C22.7506 4.61328 23.8102 4.42188 24.9505 4.42188C26.1283 4.42188 27.2116 4.61914 28.1983 5.01367C29.185 5.4082 30.0319 5.94727 30.739 6.63086C31.4441 7.3125 31.9936 8.11719 32.3816 9.04102C32.7716 9.9668 32.9666 10.9688 32.9666 12.0449ZM24.9505 8.35352C24.208 8.35352 23.5876 8.54297 23.0893 8.91992C22.593 9.29688 22.2444 9.85352 22.0435 10.5898H27.9935C27.5228 9.09961 26.5084 8.35352 24.9505 8.35352Z" fill="#8A8A8A"/>
<path d="M105.415 15.0312V19.4219H101.936C100.288 19.4219 99.0078 18.9648 98.092 18.0488C97.1781 17.1328 96.7212 15.8574 96.7212 14.2227V8.72656H94.0308V7.56836L100.605 0.617188H101.637V4.87305L101.773 13.3613C101.773 13.8809 101.923 14.291 102.222 14.5859C102.521 14.8828 102.933 15.0312 103.459 15.0312H105.415ZM113.196 20.3789C112.2 20.3789 111.304 20.2519 110.506 20.0019C109.71 19.75 109.035 19.3945 108.483 18.9375C107.93 18.4785 107.5 17.9277 107.191 17.2793C106.884 16.6328 106.73 15.916 106.73 15.125H111.593C111.593 15.6465 111.757 16.0371 112.082 16.2969C112.409 16.5566 112.806 16.6875 113.277 16.6875C113.657 16.6875 113.994 16.5937 114.284 16.4043C114.573 16.2168 114.717 15.9336 114.717 15.5566C114.717 15.1426 114.473 14.8516 113.984 14.6797C113.496 14.5098 112.907 14.3613 112.217 14.2363C111.656 14.1465 111.063 14.0254 110.439 13.8711C109.813 13.7187 109.24 13.4766 108.714 13.1445C108.188 12.8125 107.758 12.3672 107.424 11.8105C107.087 11.2539 106.919 10.5352 106.919 9.65625C106.919 8.91992 107.069 8.25976 107.368 7.67578C107.668 7.0918 108.089 6.58789 108.633 6.16601C109.175 5.74414 109.832 5.42187 110.602 5.19726C111.371 4.97266 112.227 4.85937 113.169 4.85937C114.11 4.85937 114.963 4.97656 115.723 5.21094C116.484 5.44336 117.131 5.77539 117.665 6.20703C118.199 6.63867 118.617 7.1582 118.916 7.76953C119.213 8.38086 119.373 9.05469 119.391 9.79101H114.664C114.664 9.32226 114.524 8.97656 114.242 8.75195C113.962 8.52734 113.586 8.41601 113.116 8.41601C112.698 8.41601 112.367 8.50976 112.123 8.69922C111.879 8.88672 111.757 9.15234 111.757 9.49414C111.757 9.90625 112.005 10.1895 112.503 10.3418C113.001 10.4961 113.594 10.6348 114.284 10.7598C114.863 10.8672 115.469 10.9941 116.103 11.1367C116.738 11.2812 117.321 11.5098 117.856 11.8242C118.39 12.1387 118.829 12.5742 119.174 13.1309C119.517 13.6875 119.69 14.4238 119.69 15.3398C119.69 16.0957 119.536 16.7812 119.227 17.4004C118.92 18.0215 118.481 18.5508 117.909 18.9902C117.34 19.4316 116.655 19.7715 115.859 20.0156C115.061 20.2578 114.175 20.3789 113.196 20.3789ZM56.9581 15.0625V19.4551H53.4799C51.8314 19.4551 50.5493 18.9961 49.6354 18.0801C48.7196 17.1641 48.2626 15.8887 48.2626 14.2559V8.75781H45.5742V7.59961L52.1485 0.648437H53.1806V4.90625H56.8754V8.75781H53.3165V13.3926C53.3165 13.9141 53.4662 14.3223 53.7655 14.6191C54.0629 14.9141 54.4765 15.0625 55.0004 15.0625H56.9581ZM66.534 19.9394C65.3385 19.9394 64.2435 19.7461 63.237 19.3613C62.2365 18.9746 61.3679 18.4355 60.6333 17.7441C59.9006 17.0527 59.3354 16.2344 58.9277 15.293C58.52 14.3496 58.3152 13.3125 58.3152 12.1797C58.3152 11.0488 58.52 10.0117 58.9277 9.06836C59.3354 8.125 59.9006 7.30859 60.6333 6.61719C61.3679 5.92578 62.2365 5.38672 63.237 5C64.2435 4.61328 65.3385 4.42187 66.534 4.42187C67.7296 4.42187 68.8246 4.61328 69.8311 5C70.8316 5.38672 71.7001 5.92578 72.4348 6.61719C73.1674 7.30859 73.7347 8.125 74.1424 9.06836C74.5501 10.0117 74.7529 11.0488 74.7529 12.1797C74.7529 13.3125 74.5501 14.3496 74.1424 15.293C73.7347 16.2344 73.1674 17.0527 72.4348 17.7441C71.7001 18.4355 70.8316 18.9746 69.8311 19.3613C68.8246 19.7461 67.7296 19.9394 66.534 19.9394ZM66.5478 15.4395C67.4715 15.4395 68.2278 15.1387 68.8167 14.5371C69.4056 13.9355 69.6991 13.1504 69.6991 12.1797C69.6991 11.2109 69.4056 10.4238 68.8167 9.82226C68.2278 9.2207 67.4715 8.91992 66.5478 8.91992C65.6241 8.91992 64.8639 9.2207 64.2651 9.82226C63.6684 10.4238 63.369 11.2109 63.369 12.1797C63.369 13.1504 63.6684 13.9355 64.2651 14.5371C64.8639 15.1387 65.6241 15.4395 66.5478 15.4395ZM84.4667 19.9394C83.2712 19.9394 82.1741 19.7461 81.1697 19.3613C80.1692 18.9746 79.2986 18.4355 78.566 17.7441C77.8313 17.0527 77.2661 16.2344 76.8584 15.293C76.4507 14.3496 76.2478 13.3125 76.2478 12.1797C76.2478 11.0488 76.4507 10.0117 76.8584 9.06836C77.2661 8.125 77.8313 7.30859 78.566 6.61719C79.2986 5.92578 80.1692 5.38672 81.1697 5C82.1741 4.61328 83.2712 4.42187 84.4667 4.42187C85.6602 4.42187 86.7573 4.61328 87.7617 5C88.7623 5.38672 89.6328 5.92578 90.3655 6.61719C91.1001 7.30859 91.6654 8.125 92.073 9.06836C92.4807 10.0117 92.6836 11.0488 92.6836 12.1797C92.6836 13.3125 92.4807 14.3496 92.073 15.293C91.6654 16.2344 91.1001 17.0527 90.3655 17.7441C89.6328 18.4355 88.7623 18.9746 87.7617 19.3613C86.7573 19.7461 85.6602 19.9394 84.4667 19.9394ZM84.4785 15.4395C85.4022 15.4395 86.1585 15.1387 86.7474 14.5371C87.3363 13.9355 87.6317 13.1504 87.6317 12.1797C87.6317 11.2109 87.3363 10.4238 86.7474 9.82226C86.1585 9.2207 85.4022 8.91992 84.4785 8.91992C83.5548 8.91992 82.7946 9.2207 82.1978 9.82226C81.599 10.4238 81.2997 11.2109 81.2997 12.1797C81.2997 13.1504 81.599 13.9355 82.1978 14.5371C82.7946 15.1387 83.5548 15.4395 84.4785 15.4395Z" fill="#D6D6D6"/>
</g>
<defs>
<clipPath id="clip0_746_57">
<rect width="120" height="20" fill="white" transform="translate(0 0.5)"/>
</clipPath>
</defs>
</svg>
