<svg width="171" height="28" viewBox="0 0 171 28" fill="none" xmlns="http://www.w3.org/2000/svg">
<g clip-path="url(#clip0_3430_272)">
<path d="M47.8352 23.6298H52.7104L53.8381 21.648H47.8352V23.6298ZM86.0348 21.7217H82.2373V19.7889H86.0348C86.6464 19.7889 87.0885 19.9364 87.0885 20.7436C87.0885 21.3792 86.8195 21.7217 86.0348 21.7217ZM82.2373 16.5355H85.6905C86.2054 16.5355 86.4268 16.8048 86.4268 17.3185C86.4268 17.8562 86.0835 18.1261 85.6905 18.1261H82.2373V16.5355ZM87.5503 18.3193C88.1213 18.0747 88.607 17.6877 88.607 16.7069C88.607 14.8473 87.0394 14.6281 85.9358 14.6281H80.1046V23.6298H86.0346C88.7534 23.6298 89.3175 22.1377 89.3175 20.7673C89.3175 19.2251 88.4407 18.5861 87.5503 18.3193ZM105.515 23.6298H110.39L111.518 21.648H105.514L105.515 23.6298ZM47.8353 18.1261V20.1068H54.7198L55.8718 18.1261H47.8353ZM96.7417 21.7217H93.5817V19.7153H96.7417C97.1097 19.7153 97.673 19.8136 97.673 20.7179C97.673 21.5496 97.2087 21.7217 96.7417 21.7217ZM96.864 17.8566H93.5817V14.6285H91.4251V23.6301H93.1164H93.5817H96.8414C98.3099 23.6301 99.8297 22.8229 99.8297 20.6952C99.8297 17.9054 97.8691 17.8566 96.864 17.8566ZM100.932 23.6298H103.065V14.6281H100.932V23.6298ZM60.5269 14.6281L55.3574 23.6298H57.905L61.3109 17.6855L64.7413 23.6298H67.4116L62.242 14.6281H60.5269ZM72.8272 21.7707C70.7448 21.7707 69.8625 20.572 69.8625 19.1041C69.8625 17.4896 70.8675 16.413 72.8272 16.413C75.0335 16.413 75.7921 17.4896 75.7921 19.1041C75.7921 21.0365 74.3472 21.7707 72.8272 21.7707ZM72.8526 14.4078C69.2503 14.4078 67.535 16.6091 67.535 19.0795C67.535 21.648 69.2008 23.7522 72.8526 23.7522C74.4455 23.7522 78.121 23.0182 78.121 19.0795C78.121 16.5116 76.4784 14.4078 72.8526 14.4078ZM35.4569 21.648L38.8625 15.7043L42.2934 21.648H35.4569ZM39.8186 12.6465H38.0539L32.8843 21.648H31.5859V26.2711H33.6433V23.6298H44.2288V26.2711H46.2871V21.648H44.9883L39.8186 12.6465ZM57.8804 14.6281H47.8353V16.6091H56.7288L57.8804 14.6281ZM105.515 18.1261V20.1068H112.4L113.551 18.1261H105.515ZM115.56 14.6281H105.515V16.6091H114.409L115.56 14.6281ZM167.946 14.6281L162.848 20.4741V14.6281H160.693V23.6298H162.506L167.701 17.7352V23.6298H169.857V14.6281H167.946ZM118.208 14.6281L113.037 23.6298H115.585L118.992 17.6855L122.422 23.6298H125.093L119.922 14.6281H118.208ZM144.472 18.1261H139.743V14.6281H137.587V23.6298H139.743V20.1068H144.472V23.6298H146.628V14.6281H144.472V18.1261ZM151.234 20.4745V14.6284H149.078V23.6301H150.89L156.085 17.7356V23.6301H158.242V14.6284H156.33L151.234 20.4745ZM128.128 20.4253V14.6281H125.971V23.6298H127.785L132.979 17.7833V23.6298H135.135V14.6281H133.323L128.128 20.4253Z" fill="#454545"/>
<path d="M15.7316 19.2843L5.56205 14.891L3.40267 18.6241L14.8443 20.8196L15.7316 19.2843ZM14.3149 23.6434H17.6968L20.6688 18.5051L23.6401 23.6434H27.0213L20.6684 12.6569L14.3149 23.6434ZM2.89777 19.4987L0.5 23.6431H13.2115L14.3388 21.6934L2.89777 19.4987ZM20.1168 11.7033L13.7615 0.712952L11.3608 4.86446L18.988 13.655L20.1168 11.7033ZM18.4825 14.5302L10.8546 5.7379L8.69799 9.46937L17.5949 16.0653L18.4825 14.5302ZM17.1141 16.8937L8.21575 10.3023L6.04286 14.0601L16.2131 18.4545L17.1141 16.8937Z" fill="#8A8A8A"/>
</g>
<defs>
<clipPath id="clip0_3430_272">
<rect width="170" height="27" fill="white" transform="translate(0.5 0.5)"/>
</clipPath>
</defs>
</svg>
