<svg width="48" height="46" viewBox="0 0 48 46" fill="none" xmlns="http://www.w3.org/2000/svg">
<path d="M13.9629 0.643091C9.61711 1.32747 5.49945 3.26653 2.02055 6.25497C1.37039 6.81387 0.845703 7.30434 0.845703 7.32715C0.845703 7.36137 1.40461 8.09137 2.07758 8.94684C2.75055 9.80231 3.79992 11.1254 4.39305 11.8782C4.97477 12.6311 5.51086 13.2698 5.55648 13.2812C5.61352 13.304 5.89867 13.0987 6.18383 12.825C9.03539 10.1787 11.8641 8.70731 15.2176 8.15981C17.7384 7.74919 19.9968 7.9659 22.6887 8.8784C25.198 9.73387 28.0154 11.8098 29.5552 13.9542L29.9887 14.5473L34.3687 14.5587H38.7373L38.6574 14.2393C38.4977 13.6006 36.8096 10.4867 36.1937 9.72247C34.0607 7.03059 32.7262 5.78731 30.2168 4.1334C27.3766 2.25137 24.0916 1.04231 20.647 0.574654C18.9132 0.346529 15.6396 0.380748 13.9629 0.643091Z" fill="#454545"/>
<path d="M6.77734 15.4259C6.77734 15.4715 7.33625 16.213 8.03203 17.0798C8.71641 17.9581 9.91406 19.4637 10.6783 20.4333L12.0813 22.1898L29.6241 22.2012H47.1783L46.7448 21.5967C46.5053 21.2773 45.8666 20.4105 45.3305 19.6919C44.7944 18.9733 43.8477 17.6958 43.2317 16.8631L42.1025 15.3575H24.4456C14.7275 15.3575 6.77734 15.3917 6.77734 15.4259Z" fill="#454545"/>
<path d="M32.5202 24.3114C32.4746 25.03 32.3948 25.8398 32.3149 26.1136C31.5735 28.9195 31.2884 29.5697 29.988 31.5544C29.1554 32.8205 27.3532 34.6226 26.1099 35.4439C24.3648 36.5959 22.1177 37.497 20.0646 37.8848C18.6844 38.1472 16.1751 38.1472 14.8177 37.8962C11.5441 37.2803 8.77242 35.8089 6.24023 33.3451C5.85242 32.9573 5.51023 32.6722 5.48742 32.7064C5.46461 32.7292 4.40382 34.0865 3.14914 35.7062C0.924918 38.5692 0.85648 38.6719 1.05039 38.8886C1.52945 39.4247 3.35445 40.8961 4.52929 41.6717C8.27054 44.1583 12.9813 45.584 17.464 45.584C18.5818 45.584 21.2737 45.3103 22.0607 45.1278C22.3459 45.0594 22.7565 44.9567 22.9732 44.8997C25.7107 44.2267 28.8246 42.8123 31.0488 41.2383C32.7598 40.0178 35.1779 37.6225 36.2843 36.0598C38.8165 32.4669 40.1852 28.4405 40.3335 24.0833L40.3677 23.0567L36.4782 23.0225L32.5887 22.9997L32.5202 24.3114Z" fill="#454545"/>
<path d="M10.6897 25.6573C7.975 29.0564 6.77734 30.5848 6.77734 30.6647C6.77734 30.7217 11.8987 30.7559 18.1608 30.7559H29.5328L29.6925 30.4936C30.3084 29.5469 30.9928 27.893 31.3122 26.6497C31.4148 26.2162 31.7456 24.2544 31.757 23.992C31.757 23.9464 27.3314 23.9122 21.9248 23.9122H12.0812L10.6897 25.6573Z" fill="#454545"/>
<path d="M41.122 25.3379C40.9852 26.7979 40.5631 29.0108 40.2552 29.9233C39.97 30.7673 39.9586 30.7559 41.0992 30.7559H42.1258L42.3767 30.3795C42.6619 29.9917 45.1028 26.6725 46.3233 25.0528C46.7111 24.5167 47.0419 24.049 47.0419 24.0034C47.0419 23.9464 45.7416 23.9122 44.1561 23.9122H41.2589L41.122 25.3379Z" fill="#454545"/>
</svg>
