<svg width="67" height="20" viewBox="0 0 67 20" fill="none" xmlns="http://www.w3.org/2000/svg">
<g clip-path="url(#clip0_3497_7706)">
<path d="M47.3506 0.105469H66.9162V19.9455H47.3791V19.9165H47.3506V0.105469ZM61.9685 14.9717V5.05167H52.2427V14.9717H61.9685Z" fill="white"/>
<path d="M11.333 6.71036V6.70898H4.67232V11.6538H12.7096V14.9711H0.0664062V19.9462H17.6587V6.71036H11.333Z" fill="#FABA02"/>
<path d="M11.333 0.105469H0.0664062V5.05167H11.333V0.105469Z" fill="white"/>
<path d="M40.7347 0.105469V6.68064H35.9824H31.0102H26.1182V19.9179H31.0102V11.6544H40.7347V19.9468H45.6838V0.105469H40.7347Z" fill="#FABA02"/>
<path d="M30.8868 0.105469V5.05167H24.4513V19.9468H19.5023V5.05167H13.0098V0.105469H30.8882H30.8868Z" fill="#FABA02"/>
</g>
<defs>
<clipPath id="clip0_3497_7706">
<rect width="67" height="20" fill="white"/>
</clipPath>
</defs>
</svg>
