<svg width="102" height="35" viewBox="0 0 102 35" fill="none" xmlns="http://www.w3.org/2000/svg">
<path d="M72.8002 0.867317C65.0969 1.86943 57.8937 5.81106 54.7924 10.7548C51.4243 16.1662 52.258 22.3459 57.0267 27.1894C61.9622 32.2 69.6989 34.8055 78.7361 34.4714C84.2051 34.271 87.3065 33.5361 91.7417 31.3649C94.2762 30.0955 95.41 29.2939 97.4442 27.2562C98.8782 25.8199 100.279 24.0161 100.679 23.1142C102.213 19.8406 102.413 16.4668 101.279 13.7277L100.779 12.5252L92.6755 12.5586C88.2069 12.592 82.6742 12.425 80.6399 12.5586H77.3147L73.7673 17.0347L70.4325 21.0431L80.4702 21.2102L90.5412 21.3772L89.4407 22.3125C86.5061 24.751 82.4711 25.9869 77.4022 25.9869C73.4338 25.9869 70.766 25.419 67.798 23.9159C59.7279 19.8406 62.0956 12.0576 72.1332 9.68589C73.7339 9.31845 76.4685 9.18484 83.4381 9.18484H92.6755L95.7768 5.41022C97.5109 3.37259 99.5059 0.834038 99.7727 0.5C98.4426 0.5 98.9414 0.5 87.3732 0.533279C80.5035 0.566681 73.9674 0.700298 72.8002 0.867317Z" fill="#D6D6D6"/>
<path d="M3.93504 4.34006C2.50108 6.07705 1.00043 7.88085 0.633608 8.3485L0 9.18359H6.80295H13.6059L16.5738 5.57599C18.2412 3.60518 19.7973 1.43394 19.9641 1.20011C18.8002 1.20011 18.634 1.20011 13.3058 1.20011H6.53616L3.93504 4.34006Z" fill="#D6D6D6"/>
<path d="M17.5069 10.5885C13.1717 15.7995 9.30331 20.3758 8.93649 20.7766L8.26953 21.5449H15.1058H21.9755L27.0777 15.432C29.8789 12.0917 33.7472 7.51537 35.6481 5.24392L39.1162 1.16866H32.2466H25.4103L17.5069 10.5885Z" fill="#D6D6D6"/>
<path d="M30.382 17.6028L16.6094 34.0709L22.9121 34.1711C26.3803 34.2045 29.515 34.1711 29.8818 34.0709C30.382 33.9372 48.6232 12.4587 56.8268 2.33735L57.7939 1.16822H50.9909H44.1546L30.382 17.6028Z" fill="#D6D6D6"/>
</svg>
