<svg width="24" height="24" viewBox="0 0 24 24" fill="none" xmlns="http://www.w3.org/2000/svg">
<path d="M16.053 15.803C16.7086 15.1474 17.2287 14.369 17.5835 13.5124C17.9383 12.6558 18.1209 11.7377 18.1209 10.8105C18.1209 9.8833 17.9383 8.96518 17.5835 8.10857C17.2287 7.25196 16.7086 6.47362 16.053 5.81799C15.3973 5.16237 14.619 4.6423 13.7624 4.28748C12.9058 3.93265 11.9877 3.75003 11.0605 3.75003C10.1333 3.75003 9.21515 3.93265 8.35854 4.28748C7.50192 4.6423 6.72359 5.16237 6.06796 5.81799C4.74387 7.14209 4 8.93794 4 10.8105C4 12.683 4.74387 14.4789 6.06796 15.803C7.39205 17.1271 9.18791 17.871 11.0605 17.871C12.933 17.871 14.7289 17.1271 16.053 15.803ZM16.053 15.803L20.5 20.25" stroke="white" stroke-opacity="0.4" stroke-width="1.5" stroke-linecap="round" stroke-linejoin="round"/>
</svg>
