<svg width="36" height="36" viewBox="0 0 36 36" fill="none" xmlns="http://www.w3.org/2000/svg">
<path d="M23.3295 23.3294C24.3129 22.346 25.093 21.1785 25.6253 19.8936C26.1575 18.6087 26.4314 17.2315 26.4314 15.8407C26.4314 14.4499 26.1575 13.0727 25.6253 11.7878C25.093 10.5029 24.3129 9.33538 23.3295 8.35194C22.3461 7.36851 21.1786 6.5884 19.8936 6.05617C18.6087 5.52394 17.2315 5.25 15.8408 5.25C14.45 5.25 13.0728 5.52394 11.7879 6.05617C10.5029 6.5884 9.33544 7.36851 8.352 8.35194C6.36586 10.3381 5.25006 13.0319 5.25006 15.8407C5.25006 18.6495 6.36586 21.3433 8.352 23.3294C10.3381 25.3156 13.0319 26.4314 15.8408 26.4314C18.6496 26.4314 21.3434 25.3156 23.3295 23.3294ZM23.3295 23.3294L30 29.9999" stroke="white" stroke-width="2.5" stroke-linecap="round" stroke-linejoin="round"/>
</svg>
