<svg width="18" height="18" viewBox="0 0 18 18" fill="none" xmlns="http://www.w3.org/2000/svg">
<path fill-rule="evenodd" clip-rule="evenodd" d="M9.00009 4.9082C7.91511 4.9082 6.87457 5.33921 6.10738 6.1064C5.34018 6.8736 4.90918 7.91414 4.90918 8.99911C4.90918 10.0841 5.34018 11.1246 6.10738 11.8918C6.87457 12.659 7.91511 13.09 9.00009 13.09C10.0851 13.09 11.1256 12.659 11.8928 11.8918C12.66 11.1246 13.091 10.0841 13.091 8.99911C13.091 7.91414 12.66 6.8736 11.8928 6.1064C11.1256 5.33921 10.0851 4.9082 9.00009 4.9082ZM6.54554 8.99911C6.54554 9.6501 6.80415 10.2744 7.26446 10.7347C7.72478 11.1951 8.3491 11.4537 9.00009 11.4537C9.65107 11.4537 10.2754 11.1951 10.7357 10.7347C11.196 10.2744 11.4546 9.6501 11.4546 8.99911C11.4546 8.34813 11.196 7.7238 10.7357 7.26349C10.2754 6.80317 9.65107 6.54457 9.00009 6.54457C8.3491 6.54457 7.72478 6.80317 7.26446 7.26349C6.80415 7.7238 6.54554 8.34813 6.54554 8.99911Z" fill="black"/>
<path d="M13.909 3.27344C13.692 3.27344 13.4839 3.35964 13.3305 3.51308C13.177 3.66652 13.0908 3.87462 13.0908 4.09162C13.0908 4.30861 13.177 4.51672 13.3305 4.67016C13.4839 4.8236 13.692 4.9098 13.909 4.9098C14.126 4.9098 14.3341 4.8236 14.4875 4.67016C14.641 4.51672 14.7272 4.30861 14.7272 4.09162C14.7272 3.87462 14.641 3.66652 14.4875 3.51308C14.3341 3.35964 14.126 3.27344 13.909 3.27344Z" fill="black"/>
<path fill-rule="evenodd" clip-rule="evenodd" d="M3.27273 0C2.40475 0 1.57232 0.344804 0.95856 0.95856C0.344804 1.57232 0 2.40475 0 3.27273V14.7273C0 15.5953 0.344804 16.4277 0.95856 17.0414C1.57232 17.6552 2.40475 18 3.27273 18H14.7273C15.5953 18 16.4277 17.6552 17.0414 17.0414C17.6552 16.4277 18 15.5953 18 14.7273V3.27273C18 2.40475 17.6552 1.57232 17.0414 0.95856C16.4277 0.344804 15.5953 0 14.7273 0H3.27273ZM14.7273 1.63636H3.27273C2.83874 1.63636 2.42252 1.80877 2.11564 2.11564C1.80877 2.42252 1.63636 2.83874 1.63636 3.27273V14.7273C1.63636 15.1613 1.80877 15.5775 2.11564 15.8844C2.42252 16.1912 2.83874 16.3636 3.27273 16.3636H14.7273C15.1613 16.3636 15.5775 16.1912 15.8844 15.8844C16.1912 15.5775 16.3636 15.1613 16.3636 14.7273V3.27273C16.3636 2.83874 16.1912 2.42252 15.8844 2.11564C15.5775 1.80877 15.1613 1.63636 14.7273 1.63636Z" fill="black"/>
</svg>
