<svg width="138" height="14" viewBox="0 0 138 14" fill="none" xmlns="http://www.w3.org/2000/svg">
<path d="M78.181 10.6612C78.181 11.0585 78.0978 11.4559 78.0146 11.8532C77.8483 12.2505 77.5988 12.5684 77.2661 12.8863C76.8502 13.2041 76.3512 13.4425 75.6859 13.6015C75.0205 13.7604 74.1056 13.8399 72.9412 13.8399C71.9432 13.8399 71.1115 13.7604 70.4461 13.522C69.7808 13.3631 69.1986 13.0452 68.7827 12.7273C68.3669 12.4095 68.0342 12.0121 67.8678 11.6148C67.7015 11.2175 67.5352 10.7407 67.5352 10.3433H69.2817C69.2817 10.8201 69.4481 11.138 69.6976 11.3764C69.9471 11.6148 70.2798 11.8532 70.6125 11.9327C71.0283 12.0916 71.4442 12.1711 71.86 12.1711C72.359 12.1711 72.7749 12.2505 73.2739 12.2505C74.3551 12.2505 75.1037 12.0916 75.6027 11.8532C76.1017 11.5353 76.3512 11.2175 76.3512 10.7407C76.3512 10.4228 76.268 10.1844 76.0185 10.0255C75.769 9.86652 75.5195 9.70759 75.1037 9.54866C74.771 9.46919 74.2719 9.38972 73.8561 9.31025C73.3571 9.23079 72.8581 9.15132 72.359 9.15132C71.6937 9.07185 71.1115 8.99238 70.5293 8.91292C69.9471 8.83345 69.4481 8.67452 69.0322 8.51558C68.6164 8.35665 68.2837 8.11825 68.0342 7.80038C67.7847 7.48251 67.6183 7.08518 67.6183 6.60837C67.6183 6.21104 67.7015 5.8137 67.8678 5.41637C68.0342 5.01903 68.2837 4.70116 68.6995 4.38329C69.1154 4.06542 69.6144 3.82701 70.3629 3.66808C71.0283 3.50914 71.9432 3.42969 73.1076 3.42969C74.1056 3.42969 74.9373 3.50915 75.6027 3.74755C76.268 3.98595 76.7671 4.22435 77.0997 4.54222C77.4324 4.86009 77.6819 5.25742 77.8483 5.65476C78.0146 6.05209 78.0978 6.44943 78.0978 6.92624H76.3512C76.268 6.5289 76.1849 6.13156 76.0185 5.89316C75.8522 5.65476 75.6027 5.41636 75.27 5.33689C74.9373 5.17796 74.6046 5.09849 74.1888 5.09849C73.7729 5.01902 73.2739 5.01903 72.7749 5.01903C71.6105 5.01903 70.7788 5.17797 70.2798 5.41637C69.7808 5.65477 69.5312 6.0521 69.5312 6.5289C69.5312 6.7673 69.6144 7.00571 69.8639 7.16464C70.1134 7.32358 70.4461 7.40304 70.7788 7.56198C71.1946 7.64144 71.6105 7.72091 72.0264 7.80038C72.5254 7.87985 72.9412 7.87985 73.3571 7.95931C74.0224 8.03878 74.6046 8.11825 75.27 8.19772C75.8522 8.27718 76.3512 8.43611 76.7671 8.67451C77.1829 8.91291 77.5156 9.15132 77.7651 9.46918C78.0146 9.70759 78.181 10.1049 78.181 10.6612Z" fill="white" fill-opacity="0.4"/>
<path d="M85.4173 13.4401C84.5024 13.4401 83.7539 13.3606 83.2549 13.2017C82.7559 13.0428 82.34 12.8044 82.0905 12.3276C81.841 11.9302 81.6746 11.3739 81.5915 10.6587C81.5083 9.94353 81.5083 9.0694 81.5083 7.95686V5.41391H79.7617V3.90403H81.5915V1.83789H83.338L83.0054 3.90403H86.249V5.41391H83.2549V7.95686C83.2549 8.91047 83.2549 9.62567 83.338 10.1819C83.338 10.7382 83.4212 11.1355 83.5876 11.374C83.7539 11.6124 83.9202 11.7713 84.2529 11.8507C84.5856 11.9302 84.9183 11.9302 85.5005 11.9302L85.4173 13.4401Z" fill="white" fill-opacity="0.4"/>
<path d="M97.0596 12.3265C96.5605 12.8827 95.8952 13.2801 95.0635 13.5979C94.3149 13.8363 93.4001 13.9953 92.402 13.9953C91.6535 13.9953 91.0713 13.9158 90.4059 13.7569C89.8237 13.598 89.3247 13.2801 88.9089 12.9622C88.493 12.5649 88.1603 12.1675 87.9108 11.6113C87.6613 11.055 87.5781 10.4193 87.5781 9.70406V3.98242H89.3247V9.14779C89.3247 9.46566 89.3247 9.78353 89.4079 10.1809C89.4079 10.5782 89.5742 10.8961 89.7406 11.2934C89.9069 11.6113 90.2396 11.9291 90.6554 12.1675C91.0713 12.4059 91.6535 12.4854 92.4852 12.4854C93.1505 12.4854 93.6496 12.4059 94.2318 12.3265C94.7308 12.1675 95.2298 12.0086 95.5625 11.6907C95.9783 11.3729 96.2279 10.9755 96.4774 10.4193C96.7269 9.86299 96.81 9.14779 96.81 8.35312V4.06188H98.5566V13.5979H96.81L97.0596 12.3265Z" fill="white" fill-opacity="0.4"/>
<path d="M111.284 12.2472C110.785 12.8035 110.12 13.2008 109.288 13.5187C108.456 13.8366 107.625 13.9955 106.627 13.9955C105.712 13.9955 104.88 13.916 104.215 13.6776C103.466 13.4392 102.884 13.2008 102.385 12.724C101.886 12.3267 101.47 11.7704 101.221 11.1347C100.971 10.499 100.805 9.70428 100.805 8.83014C100.805 7.956 100.971 7.16133 101.221 6.52559C101.47 5.88986 101.886 5.33358 102.385 4.85678C102.884 4.45944 103.549 4.14157 104.298 3.90317C105.046 3.66477 105.878 3.58531 106.876 3.58531C108.789 3.58531 110.286 4.06212 111.284 5.01572V0.962891H113.031V13.5187H111.284V12.2472ZM102.468 8.75068C102.468 10.0222 102.884 10.9758 103.549 11.532C104.298 12.0883 105.296 12.3267 106.627 12.3267C107.292 12.3267 107.874 12.2472 108.456 12.1678C109.039 12.0883 109.454 11.8499 109.87 11.532C110.286 11.2142 110.536 10.8963 110.785 10.4195C110.951 9.94268 111.118 9.38641 111.118 8.75068C111.118 7.39973 110.702 6.5256 110.037 5.96933C109.288 5.41305 108.207 5.09518 106.793 5.09518C105.379 5.09518 104.298 5.41305 103.632 5.96933C102.884 6.5256 102.551 7.4792 102.468 8.75068Z" fill="white" fill-opacity="0.4"/>
<path d="M124.343 12.0113V13.5211H114.445V12.0113H119.519V5.41549H115.942V3.90561H121.265V12.0113H124.343ZM121.182 0.0117188V2.07786H118.853V0.0117188H121.182Z" fill="white" fill-opacity="0.4"/>
<path d="M137.318 8.75399C137.318 9.62812 137.151 10.4228 136.819 11.0585C136.486 11.6943 136.07 12.2505 135.571 12.6479C135.072 13.0452 134.407 13.3631 133.658 13.6015C132.909 13.8399 132.078 13.9194 131.246 13.9194C130.331 13.9194 129.5 13.8399 128.834 13.6015C128.086 13.3631 127.503 13.0452 126.921 12.6479C126.422 12.2505 126.006 11.6943 125.674 10.9791C125.424 10.3433 125.258 9.54865 125.258 8.67451C125.258 7.80037 125.424 7.00571 125.674 6.36997C125.923 5.73423 126.339 5.17796 126.921 4.70116C127.42 4.22435 128.086 3.90649 128.834 3.74755C129.583 3.50915 130.414 3.42969 131.246 3.42969C132.161 3.42969 132.993 3.50915 133.741 3.74755C134.49 3.98595 135.155 4.30382 135.654 4.70116C136.153 5.17796 136.569 5.65477 136.902 6.36997C137.151 7.00571 137.318 7.80038 137.318 8.75399ZM127.004 8.67451C127.004 9.94599 127.42 10.8996 128.086 11.5353C128.834 12.1711 129.832 12.4095 131.163 12.4095C132.494 12.4095 133.492 12.0916 134.24 11.5353C134.989 10.8996 135.321 9.94599 135.405 8.67451C135.405 7.40304 134.989 6.44944 134.24 5.8137C133.492 5.17797 132.41 4.93956 131.08 4.93956C129.749 4.93956 128.751 5.25743 128.002 5.8137C127.42 6.36997 127.088 7.32357 127.004 8.67451Z" fill="white" fill-opacity="0.4"/>
<path d="M1.82584 11.4559V13.522H-0.00390625V0.966191H1.82584V9.31024L12.4717 0.886719H15.2163L9.72703 5.17795L15.2994 13.4425H13.137L8.31313 6.29049L1.82584 11.4559Z" fill="white" fill-opacity="0.4"/>
<path d="M20.0402 9.70428L18.0441 13.5187H15.9648L22.4521 0.962891H25.6126L32.0999 13.5187H30.0206L28.0245 9.70428H20.0402ZM20.8719 8.11494H27.276L24.1155 1.91649L20.8719 8.11494Z" fill="white" fill-opacity="0.4"/>
<path d="M35.5106 2.07543V13.5187H33.5977V0.962891H36.8413L45.4078 12.4062V0.962891H47.2376V13.5187H43.994L35.5106 2.07543Z" fill="white" fill-opacity="0.4"/>
<path d="M56.636 2.47606V13.4425H54.8063V2.47606H48.9844V0.886719H62.5412V2.47606H56.636Z" fill="white" fill-opacity="0.4"/>
<path d="M64.7897 11.4531H62.4609V13.5193H64.7897V11.4531Z" fill="white" fill-opacity="0.4"/>
</svg>
