<svg width="45" height="46" viewBox="0 0 45 46" fill="none" xmlns="http://www.w3.org/2000/svg">
<g clip-path="url(#clip0_3430_1696)">
<path d="M41.2356 0.5H3.58794C1.60638 0.5 0 2.10638 0 4.08794V41.7357C0 43.7172 1.60638 45.3236 3.58794 45.3236H41.2356C43.2172 45.3236 44.8236 43.7172 44.8236 41.7357V4.08794C44.8236 2.10638 43.2172 0.5 41.2356 0.5Z" fill="#454545"/>
<path d="M41.702 22.9115C41.702 33.5644 33.0662 42.1999 22.4134 42.1999C11.7607 42.1999 3.125 33.5644 3.125 22.9115C3.125 12.2588 11.7607 3.62305 22.4134 3.62305C33.0662 3.62305 41.702 12.2588 41.702 22.9115Z" fill="white"/>
<path d="M20.9066 19.4928H16.9031L12.2358 24.2706V14.5723H8.65234V31.1942H12.2358V25.9517L16.7259 31.1942H21.2606L15.7084 24.7793L20.9066 19.4928Z" fill="#454545"/>
<path d="M23.6503 18.4098C23.1045 18.4098 22.6401 18.2186 22.2568 17.8349C21.873 17.4518 21.6816 16.987 21.6816 16.4415C21.6816 15.8959 21.8731 15.4316 22.2568 15.0478C22.6401 14.6648 23.1045 14.4728 23.6503 14.4728C24.1957 14.4728 24.6601 14.6648 25.0438 15.0478C25.4272 15.4316 25.6188 15.8959 25.6188 16.4415C25.6188 16.987 25.4272 17.4517 25.0438 17.8349C24.6601 18.2186 24.1957 18.4098 23.6503 18.4098Z" fill="#8A8A8A"/>
<path d="M25.4428 31.1955H21.8594V19.4941H25.4428V31.1955Z" fill="#454545"/>
<path d="M36.1692 22.4789V19.4928H32.8955V14.5723H29.312V19.4928H26.9453V22.4789H29.312V27.633C29.312 28.8571 29.6695 29.7825 30.385 30.409C31.1002 31.036 32.1581 31.3491 33.5591 31.3491C33.898 31.3491 34.3184 31.316 34.8201 31.2496C35.3211 31.1832 35.7342 31.0983 36.0588 30.995V28.0974C35.7634 28.1861 35.4908 28.2487 35.2402 28.2855C34.9893 28.3224 34.7239 28.3407 34.4439 28.3407C33.8689 28.3407 33.4671 28.2341 33.2384 28.0199C33.0096 27.8063 32.8955 27.4415 32.8955 26.9251V22.4789H36.1692Z" fill="#454545"/>
</g>
<defs>
<clipPath id="clip0_3430_1696">
<rect width="45" height="45" fill="white" transform="translate(0 0.5)"/>
</clipPath>
</defs>
</svg>
