<svg width="101" height="30" viewBox="0 0 101 30" fill="none" xmlns="http://www.w3.org/2000/svg">
<g clip-path="url(#clip0_780_8971)">
<path d="M71.4473 0.046875H101.011V29.9703H71.4924V29.928H71.4507V0.046875H71.4473ZM93.5316 22.4657V7.5057H78.8365V22.4657H93.5316Z" fill="white"/>
<path d="M17.0227 10.0039H6.95845V17.4627H19.1036V22.4635H0V29.9682H26.5797V10.0039H17.0227Z" fill="#FABA02"/>
<path d="M17.0227 0.046875H0V7.5057H17.0227V0.046875Z" fill="white"/>
<path d="M61.4476 0.046875V9.96376H54.2668H46.7525H39.3633V29.9245H46.7525V17.4649H61.4476V29.9703H68.9237V0.046875H61.4476Z" fill="#FABA02"/>
<path d="M46.5686 0.046875V7.5057H36.8449V29.9703H29.3653V7.5057H19.5547V0.046875H46.5686Z" fill="#FABA02"/>
</g>
<defs>
<clipPath id="clip0_780_8971">
<rect width="101" height="30" fill="white"/>
</clipPath>
</defs>
</svg>
