<?xml version="1.0" encoding="UTF-8"?>
<svg id="_Слой_1" data-name="Слой 1" xmlns="http://www.w3.org/2000/svg" viewBox="0 0 1172.26 434.98">
  <defs>
    <style>
      .cls-1 {
        fill: #faba02;
      }

      .cls-2 {
        fill: #fff;
      }
    </style>
  </defs>
  <rect class="cls-2" y=".5" width="197.56" height="85.28"/>
  <g>
    <path class="cls-2" d="M829.16.5h343.1v342.1h-342.6v-.5h-.5V.5ZM1085.48,256.82V85.78h-170.54v171.04h170.54Z"/>
    <polygon class="cls-1" points="197.56 114.38 197.56 114.37 80.76 114.37 80.76 199.64 221.71 199.64 221.71 256.82 0 256.82 0 342.6 308.49 342.6 308.49 114.38 197.56 114.38"/>
    <g>
      <rect class="cls-1" x="456.82" width="85.78" height="0"/>
      <polygon class="cls-1" points="713.15 .5 713.15 113.87 629.81 113.87 542.6 113.87 456.82 113.87 456.82 342.1 542.6 342.1 542.6 199.64 713.15 199.64 713.15 342.6 799.92 342.6 799.92 .5 713.15 .5"/>
    </g>
    <path class="cls-1" d="M540.45.5v85.28h-112.86v256.82h-86.79V85.78h-113.86V.5h313.51Z"/>
  </g>
  <g>
    <path class="cls-2" d="M27.63,434.98h-3.69c-.52,0-.91-.44-.91-.91v-17.43c0-.52-.28-.64-.64-.24-5.12,5.96-10.28,11.95-15.44,17.87-.32.4-1.03.71-1.51.71H1.71c-.52,0-.91-.44-.91-.91v-25.97c0-.48.4-.91.91-.91h3.73c.48,0,.91.44.91.91v17.47c0,.12.08.28.2.32.16.04.28,0,.4-.12l15.44-17.87c.4-.44.95-.71,1.55-.71h3.69c.52,0,.95.44.95.91-.04,8.66,0,17.31,0,25.97,0,.48-.44.91-.95.91Z"/>
    <path class="cls-2" d="M32.56,408.06c0-.52.4-.91.91-.91h3.73c.52,0,.91.4.91.91v9.29c0,.52.4.91.91.91h14.85c.52,0,.91-.4.91-.91v-9.29c0-.52.4-.91.91-.91h3.73c.52,0,.91.4.91.91v25.97c0,.52-.4.91-.91.91h-3.73c-.52,0-.91-.4-.91-.91v-9.29c0-.52-.4-.91-.91-.91h-14.85c-.52,0-.91.4-.91.91v9.29c0,.52-.4.91-.91.91h-3.73c-.52,0-.91-.4-.91-.91v-25.97Z"/>
    <path class="cls-2" d="M63.57,412.74c0-3.06,2.5-5.56,5.56-5.56h18.54c.52,0,.91.4.91.91v3.73c0,.52-.4.91-.91.91h-17.63c-.52,0-.91.4-.91.91v14.85c0,.52.4.91.91.91h17.63c.52,0,.91.4.91.91v3.73c0,.52-.4.91-.91.91h-18.54c-3.06,0-5.56-2.5-5.56-5.56v-16.68Z"/>
    <path class="cls-2" d="M93.11,407.19h25.97c.52,0,.91.4.91.91v3.73c0,.52-.4.91-.91.91h-9.29c-.52,0-.91.4-.91.91v20.41c0,.52-.4.91-.91.91h-3.73c-.52,0-.91-.4-.91-.91v-20.41c0-.52-.4-.91-.91-.91h-9.29c-.52,0-.91-.4-.91-.91v-3.73c0-.52.4-.91.91-.91Z"/>
    <path class="cls-2" d="M123.2,412.74c0-3.06,2.5-5.56,5.56-5.56h16.68c3.06,0,5.56,2.5,5.56,5.56v11.12c0,3.06-2.5,5.56-5.56,5.56h-15.76c-.52,0-.91.4-.91.91v3.73c0,.52-.4.91-.91.91h-3.73c-.52,0-.91-.4-.91-.91v-21.32ZM129.68,412.74c-.52,0-.91.4-.91.91v9.29c0,.52.4.91.91.91h14.85c.52,0,.91-.4.91-.91v-9.29c0-.52-.4-.91-.91-.91h-14.85Z"/>
    <path class="cls-2" d="M155.92,407.19h3.73c.52,0,.91.4.91.91v9.29c0,.52.4.91.91.91h14.85c.52,0,.91-.4.91-.91v-9.29c0-.52.4-.91.91-.91h3.73c.52,0,.91.4.91.91v21.32c0,3.06-2.5,5.56-5.56,5.56h-18.54c-.52,0-.91-.4-.91-.91v-3.73c0-.52.4-.91.91-.91h17.63c.52,0,.91-.4.91-.91v-3.73c0-.52-.4-.91-.91-.91h-15.76c-3.06,0-5.56-2.5-5.56-5.56v-10.2c0-.52.4-.91.91-.91Z"/>
    <path class="cls-2" d="M187.69,407.19h3.73c.6,0,1.15.24,1.51.71l13.3,15.37c4.41-5.12,8.85-10.24,13.3-15.37.32-.4.99-.71,1.51-.71h3.73c.52,0,.91.4.91.91v25.97c0,.52-.44.91-.91.91h-3.73c-.52,0-.91-.4-.91-.91v-17.47c0-.48-.28-.6-.6-.2-4.25,4.88-8.46,9.77-12.71,14.69-.16.16-.36.28-.6.28-.2,0-.44-.12-.6-.28-4.25-4.92-8.46-9.81-12.71-14.69-.32-.4-.6-.28-.6.24v17.43c0,.52-.4.91-.91.91h-3.69c-.52,0-.95-.4-.95-.91v-25.97c0-.52.4-.91.91-.91Z"/>
    <path class="cls-2" d="M228.86,412.74c0-3.06,2.5-5.56,5.56-5.56h18.54c.52,0,.91.4.91.91v3.73c0,.52-.4.91-.91.91h-17.63c-.52,0-.91.4-.91.91v3.73c0,.52.4.91.91.91h17.63c.52,0,.91.4.91.91v3.73c0,.52-.4.91-.91.91h-17.63c-.52,0-.91.4-.91.91v3.73c0,.52.4.91.91.91h17.63c.52,0,.91.4.91.91v3.73c0,.52-.4.91-.91.91h-18.54c-3.06,0-5.56-2.5-5.56-5.56v-16.68Z"/>
    <path class="cls-2" d="M257.89,408.06c0-.52.4-.91.91-.91h3.73c.52,0,.91.4.91.91v9.29c0,.52.4.91.91.91h14.85c.52,0,.91-.4.91-.91v-9.29c0-.52.4-.91.91-.91h3.73c.52,0,.91.4.91.91v25.97c0,.52-.4.91-.91.91h-3.73c-.52,0-.91-.4-.91-.91v-9.29c0-.52-.4-.91-.91-.91h-14.85c-.52,0-.91.4-.91.91v9.29c0,.52-.4.91-.91.91h-3.73c-.52,0-.91-.4-.91-.91v-25.97Z"/>
    <path class="cls-2" d="M290.21,407.19h25.97c.52,0,.91.4.91.91v3.73c0,.52-.4.91-.91.91h-9.29c-.52,0-.91.4-.91.91v20.41c0,.52-.4.91-.91.91h-3.73c-.52,0-.91-.4-.91-.91v-20.41c0-.52-.4-.91-.91-.91h-9.29c-.52,0-.91-.4-.91-.91v-3.73c0-.52.4-.91.91-.91Z"/>
    <path class="cls-2" d="M321.1,408.1c0-.52.4-.91.91-.91h3.73c.52,0,.91.4.91.91v3.73c0,.52.4.91.91.91h15.76c3.06,0,5.56,2.5,5.56,5.56v11.12c0,3.06-2.5,5.56-5.56,5.56h-16.67c-3.06,0-5.56-2.5-5.56-5.56v-21.32ZM327.57,418.3c-.52,0-.91.4-.91.91v9.29c0,.52.4.91.91.91h14.85c.52,0,.91-.4.91-.91v-9.29c0-.52-.4-.91-.91-.91h-14.85ZM351.67,408.1c0-.52.4-.91.91-.91h3.73c.52,0,.91.4.91.91v25.97c0,.52-.4.91-.91.91h-3.73c-.52,0-.91-.4-.91-.91v-25.97Z"/>
    <path class="cls-2" d="M363.22,430.33c0-.52.4-.91.91-.91h3.73c.52,0,.91.4.91.91v3.73c0,.52-.4.91-.91.91h-3.73c-.52,0-.91-.4-.91-.91v-3.73Z"/>
    <path class="cls-2" d="M388.24,407.19h16.67c3.06,0,5.56,2.5,5.56,5.56v21.32c0,.52-.4.91-.91.91h-3.73c-.52,0-.91-.4-.91-.91v-20.41c0-.52-.4-.91-.91-.91h-14.85c-.52,0-.91.4-.91.91v20.41c0,.52-.4.91-.91.91h-3.73c-.52,0-.91-.4-.91-.91v-21.32c0-3.06,2.5-5.56,5.56-5.56Z"/>
    <path class="cls-2" d="M414.44,412.74c0-3.06,2.5-5.56,5.56-5.56h16.67c3.06,0,5.56,2.5,5.56,5.56v11.12c0,3.06-2.5,5.56-5.56,5.56h-15.76c-.52,0-.91.4-.91.91v3.73c0,.52-.4.91-.91.91h-3.73c-.52,0-.91-.4-.91-.91v-21.32ZM420.92,412.74c-.52,0-.91.4-.91.91v9.29c0,.52.4.91.91.91h14.85c.52,0,.91-.4.91-.91v-9.29c0-.52-.4-.91-.91-.91h-14.85Z"/>
    <path class="cls-2" d="M446.25,412.74c0-3.06,2.5-5.56,5.56-5.56h16.67c3.06,0,5.56,2.5,5.56,5.56v16.68c0,3.06-2.5,5.56-5.56,5.56h-16.67c-3.06,0-5.56-2.5-5.56-5.56v-16.68ZM467.57,429.42c.52,0,.91-.4.91-.91v-14.85c0-.52-.4-.91-.91-.91h-14.85c-.52,0-.91.4-.91.91v14.85c0,.52.4.91.91.91h14.85Z"/>
    <path class="cls-2" d="M478.92,407.19h3.73c.59,0,1.15.24,1.51.71l13.3,15.37c4.41-5.12,8.85-10.24,13.3-15.37.32-.4.99-.71,1.51-.71h3.73c.52,0,.91.4.91.91v25.97c0,.52-.44.91-.91.91h-3.73c-.52,0-.91-.4-.91-.91v-17.47c0-.48-.28-.6-.6-.2-4.25,4.88-8.46,9.77-12.71,14.69-.16.16-.36.28-.6.28-.2,0-.44-.12-.59-.28-4.25-4.92-8.46-9.81-12.71-14.69-.32-.4-.6-.28-.6.24v17.43c0,.52-.4.91-.91.91h-3.69c-.52,0-.95-.4-.95-.91v-25.97c0-.52.4-.91.91-.91Z"/>
    <path class="cls-2" d="M520.89,408.1c0-.52.4-.91.91-.91h3.73c.52,0,.91.4.91.91v3.73c0,.52.4.91.91.91h15.76c3.06,0,5.56,2.5,5.56,5.56v11.12c0,3.06-2.5,5.56-5.56,5.56h-16.67c-3.06,0-5.56-2.5-5.56-5.56v-21.32ZM527.37,418.3c-.52,0-.91.4-.91.91v9.29c0,.52.4.91.91.91h14.85c.52,0,.91-.4.91-.91v-9.29c0-.52-.4-.91-.91-.91h-14.85ZM551.46,408.1c0-.52.4-.91.91-.91h3.73c.52,0,.91.4.91.91v25.97c0,.52-.4.91-.91.91h-3.73c-.52,0-.91-.4-.91-.91v-25.97Z"/>
    <path class="cls-2" d="M561.95,407.19h3.73c.52,0,.91.4.91.91v20.41c0,.52.4.91.91.91h9.29c.52,0,.91-.4.91-.91v-20.41c0-.52.4-.91.91-.91h3.73c.52,0,.91.4.91.91v20.41c0,.52.4.91.91.91h9.29c.52,0,.91-.4.91-.91v-20.41c0-.52.4-.91.91-.91h3.73c.52,0,.91.4.91.91v21.32c0,3.06-2.5,5.56-5.56,5.56h-27.79c-3.06,0-5.56-2.5-5.56-5.56v-21.32c0-.52.4-.91.91-.91Z"/>
    <path class="cls-2" d="M615.75,407.19h13.66c.52,0,.95.4.95.91v25.97c0,.52-.44.91-.95.91h-3.69c-.52,0-.91-.4-.91-.91v-20.41c0-.52-.44-.91-.95-.91h-8.66c-.56,0-1.03.36-1.15.91l-5.48,20.41c-.16.56-.64.91-1.19.91h-3.89c-.24,0-.44-.12-.56-.28-.16-.16-.2-.4-.12-.63l5.72-21.32c.87-3.29,3.81-5.56,7.23-5.56Z"/>
    <path class="cls-2" d="M633.54,412.74c0-3.06,2.5-5.56,5.56-5.56h18.54c.52,0,.91.4.91.91v3.73c0,.52-.4.91-.91.91h-17.63c-.52,0-.91.4-.91.91v3.73c0,.52.4.91.91.91h17.63c.52,0,.91.4.91.91v3.73c0,.52-.4.91-.91.91h-17.63c-.52,0-.91.4-.91.91v3.73c0,.52.4.91.91.91h17.63c.52,0,.91.4.91.91v3.73c0,.52-.4.91-.91.91h-18.54c-3.06,0-5.56-2.5-5.56-5.56v-16.68Z"/>
    <path class="cls-2" d="M662.56,408.06c0-.52.4-.91.91-.91h3.73c.52,0,.91.4.91.91v9.29c0,.52.4.91.91.91h14.85c.52,0,.91-.4.91-.91v-9.29c0-.52.4-.91.91-.91h3.73c.52,0,.91.4.91.91v25.97c0,.52-.4.91-.91.91h-3.73c-.52,0-.91-.4-.91-.91v-9.29c0-.52-.4-.91-.91-.91h-14.85c-.52,0-.91.4-.91.91v9.29c0,.52-.4.91-.91.91h-3.73c-.52,0-.91-.4-.91-.91v-25.97Z"/>
    <path class="cls-2" d="M694.37,408.06c0-.52.4-.91.91-.91h3.73c.52,0,.91.4.91.91v9.29c0,.52.4.91.91.91h14.85c.52,0,.91-.4.91-.91v-9.29c0-.52.4-.91.91-.91h3.73c.52,0,.91.4.91.91v25.97c0,.52-.4.91-.91.91h-3.73c-.52,0-.91-.4-.91-.91v-9.29c0-.52-.4-.91-.91-.91h-14.85c-.52,0-.91.4-.91.91v9.29c0,.52-.4.91-.91.91h-3.73c-.52,0-.91-.4-.91-.91v-25.97Z"/>
    <path class="cls-2" d="M725.38,412.74c0-3.06,2.5-5.56,5.56-5.56h16.67c3.06,0,5.56,2.5,5.56,5.56v16.68c0,3.06-2.5,5.56-5.56,5.56h-16.67c-3.06,0-5.56-2.5-5.56-5.56v-16.68ZM746.7,429.42c.52,0,.91-.4.91-.91v-14.85c0-.52-.4-.91-.91-.91h-14.85c-.52,0-.91.4-.91.91v14.85c0,.52.4.91.91.91h14.85Z"/>
    <path class="cls-2" d="M757.14,412.74c0-3.06,2.5-5.56,5.56-5.56h18.54c.52,0,.91.4.91.91v3.73c0,.52-.4.91-.91.91h-17.63c-.52,0-.91.4-.91.91v3.73c0,.52.4.91.91.91h17.63c.52,0,.91.4.91.91v3.73c0,.52-.4.91-.91.91h-17.63c-.52,0-.91.4-.91.91v3.73c0,.52.4.91.91.91h17.63c.52,0,.91.4.91.91v3.73c0,.52-.4.91-.91.91h-18.54c-3.06,0-5.56-2.5-5.56-5.56v-16.68Z"/>
    <path class="cls-2" d="M796.09,412.74c0-3.06,2.5-5.56,5.56-5.56h16.67c3.06,0,5.56,2.5,5.56,5.56v16.68c0,3.06-2.5,5.56-5.56,5.56h-16.67c-3.06,0-5.56-2.5-5.56-5.56v-16.68ZM817.41,429.42c.52,0,.91-.4.91-.91v-14.85c0-.52-.4-.91-.91-.91h-14.85c-.52,0-.91.4-.91.91v14.85c0,.52.4.91.91.91h14.85Z"/>
    <path class="cls-2" d="M827.86,412.74c0-3.06,2.5-5.56,5.56-5.56h18.54c.52,0,.91.4.91.91v3.73c0,.52-.4.91-.91.91h-17.63c-.52,0-.91.4-.91.91v3.73c0,.52.4.91.91.91h15.76c3.06,0,5.56,2.5,5.56,5.56v5.56c0,3.06-2.5,5.56-5.56,5.56h-16.67c-3.06,0-5.56-2.5-5.56-5.56v-16.68ZM834.33,423.86c-.52,0-.91.4-.91.91v3.73c0,.52.4.91.91.91h14.85c.52,0,.91-.4.91-.91v-3.73c0-.52-.4-.91-.91-.91h-14.85Z"/>
    <path class="cls-2" d="M859.22,412.74c0-3.06,2.5-5.56,5.56-5.56h16.67c3.06,0,5.56,2.5,5.56,5.56v16.68c0,3.06-2.5,5.56-5.56,5.56h-16.67c-3.06,0-5.56-2.5-5.56-5.56v-16.68ZM880.54,429.42c.52,0,.91-.4.91-.91v-14.85c0-.52-.4-.91-.91-.91h-14.85c-.52,0-.91.4-.91.91v14.85c0,.52.4.91.91.91h14.85Z"/>
    <path class="cls-2" d="M890.59,412.74c0-3.06,2.5-5.56,5.56-5.56h16.67c3.06,0,5.56,2.5,5.56,5.56v11.12c0,3.06-2.5,5.56-5.56,5.56h-15.76c-.52,0-.91.4-.91.91v3.73c0,.52-.4.91-.91.91h-3.73c-.52,0-.91-.4-.91-.91v-21.32ZM897.06,412.74c-.52,0-.91.4-.91.91v9.29c0,.52.4.91.91.91h14.85c.52,0,.91-.4.91-.91v-9.29c0-.52-.4-.91-.91-.91h-14.85Z"/>
    <path class="cls-2" d="M923.31,407.19h3.73c.52,0,.91.4.91.91v9.29c0,.52.4.91.91.91h14.85c.52,0,.91-.4.91-.91v-9.29c0-.52.4-.91.91-.91h3.73c.52,0,.91.4.91.91v21.32c0,3.06-2.5,5.56-5.56,5.56h-18.54c-.52,0-.91-.4-.91-.91v-3.73c0-.52.4-.91.91-.91h17.63c.52,0,.91-.4.91-.91v-3.73c0-.52-.4-.91-.91-.91h-15.76c-3.06,0-5.56-2.5-5.56-5.56v-10.2c0-.52.4-.91.91-.91Z"/>
    <path class="cls-2" d="M955.35,412.74c0-3.06,2.5-5.56,5.56-5.56h16.67c3.06,0,5.56,2.5,5.56,5.56v15.76c0,.52.4.91.91.91h.95c.52,0,.91.4.91.91v3.73c0,.52-.4.91-.91.91h-31.52c-.52,0-.91-.4-.91-.91v-3.73c0-.52.4-.91.91-.91h.95c.52,0,.91-.4.91-.91v-15.76ZM961.82,412.74c-.52,0-.91.4-.91.91v14.85c0,.52.4.91.91.91h14.85c.52,0,.91-.4.91-.91v-14.85c0-.52-.4-.91-.91-.91h-14.85Z"/>
    <path class="cls-2" d="M988.7,412.74c0-3.06,2.5-5.56,5.56-5.56h16.67c3.06,0,5.56,2.5,5.56,5.56v16.68c0,3.06-2.5,5.56-5.56,5.56h-16.67c-3.06,0-5.56-2.5-5.56-5.56v-16.68ZM1010.02,429.42c.52,0,.91-.4.91-.91v-14.85c0-.52-.4-.91-.91-.91h-14.85c-.52,0-.91.4-.91.91v14.85c0,.52.4.91.91.91h14.85Z"/>
    <path class="cls-2" d="M1020.47,412.74c0-3.06,2.5-5.56,5.56-5.56h16.67c3.06,0,5.56,2.5,5.56,5.56v3.57c0,1.27-.52,2.5-1.39,3.37l-1.39,1.39,1.39,1.39c.87.87,1.39,2.1,1.39,3.38v3.57c0,3.06-2.5,5.56-5.56,5.56h-16.67c-3.06,0-5.56-2.5-5.56-5.56v-16.68ZM1041.79,418.3c.52,0,.91-.4.91-.91v-3.73c0-.52-.4-.91-.91-.91h-14.85c-.52,0-.91.4-.91.91v3.73c0,.52.4.91.91.91h14.85ZM1041.79,429.42c.52,0,.91-.4.91-.91v-3.73c0-.52-.4-.91-.91-.91h-14.85c-.52,0-.91.4-.91.91v3.73c0,.52.4.91.91.91h14.85Z"/>
    <path class="cls-2" d="M1051.88,412.74c0-3.06,2.5-5.56,5.56-5.56h16.67c3.06,0,5.56,2.5,5.56,5.56v21.32c0,.52-.4.91-.91.91h-3.73c-.52,0-.91-.4-.91-.91v-3.73c0-.52-.4-.91-.91-.91h-14.85c-.52,0-.91.4-.91.91v3.73c0,.52-.4.91-.91.91h-3.73c-.52,0-.91-.4-.91-.91v-21.32ZM1058.35,412.74c-.52,0-.91.4-.91.91v9.29c0,.52.4.91.91.91h14.85c.52,0,.91-.4.91-.91v-9.29c0-.52-.4-.91-.91-.91h-14.85Z"/>
    <path class="cls-2" d="M1083.64,408.06c0-.52.4-.91.91-.91h3.73c.52,0,.91.4.91.91v9.29c0,.52.4.91.91.91h14.85c.52,0,.91-.4.91-.91v-9.29c0-.52.4-.91.91-.91h3.73c.52,0,.91.4.91.91v25.97c0,.52-.4.91-.91.91h-3.73c-.52,0-.91-.4-.91-.91v-9.29c0-.52-.4-.91-.91-.91h-14.85c-.52,0-.91.4-.91.91v9.29c0,.52-.4.91-.91.91h-3.73c-.52,0-.91-.4-.91-.91v-25.97Z"/>
    <path class="cls-2" d="M1142.28,434.98h-3.69c-.52,0-.91-.44-.91-.91v-17.43c0-.52-.28-.64-.63-.24-5.12,5.96-10.28,11.95-15.44,17.87-.32.4-1.03.71-1.51.71h-3.73c-.52,0-.91-.44-.91-.91v-25.97c0-.48.4-.91.91-.91h3.73c.48,0,.91.44.91.91v17.47c0,.12.08.28.2.32.16.04.28,0,.4-.12l15.44-17.87c.4-.44.95-.71,1.55-.71h3.69c.52,0,.95.44.95.91-.04,8.66,0,17.31,0,25.97,0,.48-.44.91-.95.91Z"/>
    <path class="cls-2" d="M1146.41,412.74c0-3.06,2.5-5.56,5.56-5.56h18.54c.52,0,.91.4.91.91v3.73c0,.52-.4.91-.91.91h-17.63c-.52,0-.91.4-.91.91v3.73c0,.52.4.91.91.91h17.63c.52,0,.91.4.91.91v3.73c0,.52-.4.91-.91.91h-17.63c-.52,0-.91.4-.91.91v3.73c0,.52.4.91.91.91h17.63c.52,0,.91.4.91.91v3.73c0,.52-.4.91-.91.91h-18.54c-3.06,0-5.56-2.5-5.56-5.56v-16.68Z"/>
  </g>
</svg>