<svg width="120" height="33" viewBox="0 0 120 33" fill="none" xmlns="http://www.w3.org/2000/svg">
<path d="M22.9962 25.3508L17.1416 31.6353H0V13.6478L5.85462 7.36328H7.02906H22.9962V25.3508ZM2.34889 27.3886L5.85462 23.6234V17.3018H8.20348V22.887H20.6473V11.6101L17.1416 15.3752V21.6968H14.7928V16.1116H2.34889V27.3886ZM7.51729 25.3508L3.9588 29.1716H14.7928V26.5411H17.1416V28.1203L19.7236 25.3508H7.51729ZM3.27261 13.6478H15.4745L19.0331 9.82705H8.20348V12.4576H5.85462V10.8784L3.27261 13.6478Z" fill="#8A8A8A"/>
<path d="M79.8242 28.9027C79.8242 29.2423 80.1044 29.4122 80.6621 29.4122C81.1844 29.3571 81.4435 29.1873 81.4435 28.9027V9.96428C81.4435 9.56956 81.1844 9.37221 80.6621 9.37221C80.1044 9.37221 79.8242 9.56956 79.8242 9.96428V28.9027ZM75.8035 29.4535V9.33548C75.8035 8.57353 76.2863 7.95384 77.252 7.47649C77.9232 7.10931 78.9814 6.9257 80.4341 6.9257C80.6931 6.9257 80.9825 6.93947 81.2988 6.96701C81.6143 6.99455 82.0054 7.03128 82.4705 7.07258C82.9357 7.1139 83.3741 7.247 83.7828 7.47189C84.8974 7.98139 85.455 8.60108 85.455 9.33089V29.4489C85.455 30.2108 85.0378 30.803 84.1993 31.2252C83.3614 31.6475 82.0887 31.8587 80.3769 31.8587C78.8536 31.8587 77.7087 31.6384 76.9449 31.2023C76.1854 30.7708 75.8035 30.1879 75.8035 29.4535ZM64.3664 31.5649V7.21947H67.9916V8.15127C68.4831 7.72894 69.0625 7.41224 69.7384 7.20111C70.4098 6.98997 70.9936 6.8844 71.4764 6.8844C72.9814 6.8844 73.8284 7.47649 74.0134 8.6607V9.17026V19.2729H69.9973V10.0607C69.9973 9.86334 69.9051 9.69346 69.7165 9.5512C69.5672 9.43642 69.3829 9.38139 69.159 9.38139C68.9001 9.38139 68.7114 9.46396 68.6017 9.63377C68.4524 9.74856 68.3778 9.9 68.3778 10.0974V31.5695H64.3664V31.5649ZM52.9292 29.4535V9.33548C52.9292 8.79843 53.2057 8.29353 53.7675 7.81158C54.1405 7.55913 54.4565 7.37553 54.7155 7.26078C55.3474 7.00833 56.2033 6.8798 57.2829 6.8798C57.8798 6.8798 58.6303 6.93029 59.5431 7.02668C60.4561 7.12307 61.189 7.38012 61.7463 7.78863C62.3037 8.19711 62.5846 8.7112 62.5846 9.33089V15.4631H58.5689V9.79906C58.5689 9.40435 58.2529 9.23447 57.6209 9.29416C57.1732 9.34925 56.9494 9.53283 56.9494 9.84497V28.866C56.9494 29.1781 57.1908 29.3571 57.6735 29.4168C58.2704 29.4718 58.5644 29.2745 58.5644 28.8247V21.1731H62.5802V29.4581C62.5802 30.22 62.1984 30.8167 61.4348 31.2528C60.6711 31.6888 59.5081 31.9092 57.9457 31.9092C57.3488 31.9092 56.6816 31.8679 55.9356 31.7806C53.9343 31.496 52.9292 30.7203 52.9292 29.4535ZM47.1272 31.5649V7.21947H51.1429V31.5649H47.1272ZM47.1272 5.53034V1.0918H51.1429V5.53034H47.1272ZM30.0547 31.5649V7.21947H33.6799V8.15127C34.2021 7.50403 34.7288 7.13684 35.2774 7.05422C35.8347 6.9716 36.2429 6.91194 36.5238 6.8844C36.8047 6.85685 37.0373 6.84309 37.2128 6.84309C38.2837 6.84309 39.1176 7.15521 39.7057 7.77485C40.0788 7.35258 40.5352 7.09094 41.053 6.99455C41.5841 6.89816 42.1327 6.84768 42.6901 6.84768C44.4544 6.84768 45.3409 7.63718 45.3409 9.22069V31.5741H41.3252V10.0194C41.3252 9.84956 41.233 9.69346 41.0443 9.55579C40.9346 9.44101 40.7458 9.38598 40.4869 9.38598C40.2631 9.38598 40.0788 9.44101 39.9296 9.55579C39.7803 9.6705 39.7057 9.82202 39.7057 10.0194V31.5741H35.69V10.0928C35.69 10.0102 35.6724 9.92296 35.6329 9.84038C35.5582 9.7256 35.5012 9.6568 35.4661 9.62925C35.2817 9.45937 35.0755 9.3768 34.8517 9.3768C34.742 9.3768 34.5708 9.43183 34.3513 9.54661C34.167 9.74396 34.0705 9.92755 34.0705 10.0974V31.5695H30.0547V31.5649Z" fill="#8A8A8A"/>
<path d="M110.073 31.5332V7.21676H113.685V8.14744C114.175 7.72567 114.753 7.40931 115.426 7.19842C116.095 6.98753 116.677 6.88209 117.158 6.88209C118.658 6.88209 119.502 7.4735 119.685 8.65631V9.16518V19.2558H115.684V10.0546C115.684 9.85749 115.592 9.68783 115.404 9.5457C115.255 9.43113 115.072 9.3761 114.849 9.3761C114.591 9.3761 114.403 9.45861 114.293 9.62821C114.145 9.74285 114.07 9.89416 114.07 10.0913V31.5378H110.073V31.5332ZM102.679 28.8742C102.679 29.2135 102.959 29.3831 103.514 29.3831C104.035 29.328 104.292 29.1584 104.292 28.8742V9.95829C104.292 9.56407 104.035 9.36692 103.514 9.36692C102.959 9.36692 102.679 9.56407 102.679 9.95829V28.8742ZM98.6777 29.4243V9.33026C98.6777 8.56922 99.1584 7.95029 100.125 7.4735C100.794 7.10673 101.848 6.92335 103.296 6.92335C103.553 6.92335 103.842 6.9371 104.157 6.9646C104.472 6.99211 104.861 7.02879 105.324 7.07006C105.788 7.11132 106.225 7.24426 106.632 7.4689C107.743 7.97777 108.298 8.59669 108.298 9.32567V29.4197C108.298 30.1808 107.882 30.7722 107.047 31.194C106.212 31.6158 104.944 31.8266 103.238 31.8266C101.721 31.8266 100.58 31.6066 99.8191 31.171C99.0582 30.7401 98.6777 30.1579 98.6777 29.4243ZM87.2812 31.5332V1.0918H91.2829V7.80358C91.7636 7.18467 92.5598 6.87292 93.6751 6.87292C94.0069 6.87292 94.3789 6.91418 94.7855 7.00129C96.1937 7.22593 96.8975 8.00073 96.8975 9.32567V29.4197C96.8975 31.0793 95.953 31.9092 94.0641 31.9092C93.8805 31.9092 93.5657 31.8816 93.1196 31.8266C92.118 31.657 91.3789 31.2489 90.894 30.6025V31.5332H87.2812ZM91.2871 28.7504C91.2871 29.1997 91.5843 29.3968 92.1751 29.3418C92.6558 29.2868 92.8965 29.0759 92.8965 28.7091V9.88038C92.8965 9.56407 92.6558 9.38069 92.1751 9.33026C91.5801 9.27523 91.2871 9.45861 91.2871 9.88038V28.7504Z" fill="#D6D6D6"/>
</svg>
