<svg width="120" height="33" viewBox="0 0 120 33" fill="none" xmlns="http://www.w3.org/2000/svg">
<g clip-path="url(#clip0_746_2203)">
<path d="M0 16.5V32.5H16.1684H32.3368V16.5V0.500002H30.5621C29.059 0.500002 28.7937 0.512503 28.819 0.587502C28.9011 0.800001 29.179 2.275 29.2484 2.875C29.3495 3.7875 29.2863 5.41875 29.1158 6.21875C28.4968 9.0875 27.1137 11.0188 23.0842 14.625C20.6716 16.7813 19.4653 18.0813 18.3474 19.75C16.4716 22.5375 15.9979 24.8313 16.5853 28.275C16.6737 28.7875 16.7305 29.2375 16.7179 29.275C16.7053 29.3125 16.5095 28.9625 16.2821 28.5C14.9621 25.8063 14.4 23.5125 14.4821 21.125C14.5453 19.3125 14.9116 17.8625 15.7389 16.1938C16.44 14.7875 17.3495 13.55 18.8653 11.9438C20.8863 9.8 21.8463 7.95625 22.1116 5.75C22.3011 4.13125 21.8905 2.19375 21.0695 0.825003C20.9116 0.562502 20.8421 0.500002 20.7095 0.500002H20.5453L20.6589 0.981253C20.8989 1.975 20.9874 2.84375 20.9495 3.9375C20.8989 5.3875 20.6716 6.26875 20.0337 7.53125C19.2632 9.05625 18.2589 10.2063 15.6884 12.5063C13.6484 14.3313 12.6189 15.4375 11.6842 16.8125C10.1116 19.125 9.66316 21.2063 10.1305 23.9625C10.2189 24.5063 10.2821 24.9688 10.2695 24.9875C10.2505 25 10.08 24.6813 9.88421 24.2813C8.4 21.225 7.99579 18.5313 8.65263 15.9688C9.15158 13.9938 10.1179 12.35 11.9116 10.4313C12.36 9.95 12.9284 9.2875 13.1811 8.95625C15.0695 6.4625 15.4042 3.55625 14.1032 1.04375C13.8316 0.518751 13.8126 0.500002 13.6042 0.500002C13.3579 0.500002 13.3642 0.487503 13.4842 0.937502C13.6168 1.43125 13.7684 2.6125 13.7684 3.175C13.7684 4.3125 13.4526 5.54375 12.8779 6.625C12.24 7.825 11.28 8.9125 9.25263 10.7188C7.50947 12.2688 6.6 13.2563 5.79158 14.4688C5.06526 15.5625 4.64842 16.5625 4.44632 17.6875C4.29474 18.5438 4.37684 19.9875 4.64211 21.1688C4.7179 21.4938 4.54737 21.2688 4.26316 20.675C3.37895 18.7938 3.01263 17.325 3.01263 15.6875C3.01895 13.3875 3.87158 11.3688 5.69684 9.33125C5.98105 9.00625 6.40421 8.54375 6.62526 8.29375C7.47158 7.34375 8.09053 6.2375 8.38105 5.14375C8.57684 4.3875 8.60842 3.1875 8.4379 2.45C8.3179 1.9125 8.04 1.18125 7.80632 0.787502L7.63579 0.500002H3.82105H0V16.5Z" fill="#D6D6D6"/>
<path d="M72.6937 10.5752C72.2516 10.6377 71.7147 10.8502 71.3863 11.1002C71.0705 11.3377 70.7547 12.044 70.6726 12.694C70.5589 13.5377 70.6221 18.5627 70.7484 18.969C71.02 19.8627 71.4558 20.2877 72.3589 20.5377C72.8326 20.669 76.42 20.7377 77.4368 20.6315C78.801 20.494 79.4263 20.0502 79.7547 18.969C79.881 18.5565 79.9442 13.5252 79.8305 12.694C79.7547 12.1377 79.5652 11.6252 79.2874 11.269C79.06 10.9752 78.3337 10.644 77.7274 10.5627C77.1274 10.4877 73.2684 10.494 72.6937 10.5752ZM76.9631 12.5752C77.3295 12.7752 77.3358 12.8127 77.3547 15.3127C77.38 18.044 77.3674 18.2002 77.0831 18.4815L76.8747 18.6877H75.2516H73.6284L73.42 18.4815C73.1358 18.2002 73.1231 18.044 73.1484 15.3127C73.1674 12.8065 73.18 12.719 73.5589 12.5752C73.8747 12.4502 73.9758 12.444 75.3779 12.4565C76.54 12.469 76.7989 12.4877 76.9631 12.5752Z" fill="#D6D6D6"/>
<path d="M109.156 10.5625C108.392 10.7188 108.095 11.0563 107.072 12.975L106.238 14.5313H105.587H104.937L104.918 12.6063L104.905 10.6875H103.642H102.379V15.5938V20.5H103.642H104.905V18.5V16.4938L105.581 16.5125L106.257 16.5313L107.337 18.5L108.417 20.4688L109.762 20.4875C110.501 20.4938 111.095 20.4813 111.082 20.45C111.076 20.4188 110.457 19.3125 109.724 17.9813C108.985 16.6563 108.379 15.5438 108.379 15.5188C108.379 15.375 109.8 12.825 109.945 12.7063C110.084 12.5938 110.198 12.5625 110.514 12.5625H110.905V11.6V10.6438L110.274 10.5688C109.566 10.4938 109.535 10.4938 109.156 10.5625Z" fill="#D6D6D6"/>
<path d="M37.1992 15.5938V20.5H38.494H39.7887L39.8013 17.7812L39.8203 15.0625L40.7992 16.8L41.7845 18.5312L42.7697 18.55L43.755 18.5625L44.7592 16.8L45.7571 15.0312L45.7761 17.7625L45.7887 20.5H47.0519H48.315V15.5938V10.6875H46.9697H45.6245L44.2097 13.2812C43.1234 15.2687 42.7761 15.8562 42.7255 15.7875C42.694 15.7375 42.0497 14.575 41.3045 13.1937L39.9466 10.6937L38.5761 10.6875H37.1992V15.5938Z" fill="#D6D6D6"/>
<path d="M50.0859 15.5938V20.5H51.4312H52.7765L54.4375 17.5438C55.3533 15.925 56.1238 14.5687 56.1554 14.5375C56.187 14.5 56.2123 15.7562 56.2123 17.4875V20.5H57.4754H58.7386V15.5938V10.6875H57.3933H56.048L54.3428 13.7L52.6438 16.7188L52.6249 13.7L52.6123 10.6875H51.3491H50.0859V15.5938Z" fill="#D6D6D6"/>
<path d="M60.5039 15.5938V20.5H61.7671H63.0302V18.5V16.5H64.8302H66.6302V18.5V20.5H67.8934H69.1565V15.5938V10.6875H67.8934H66.6302V12.625V14.5625H64.8302H63.0302V12.625V10.6875H61.7671H60.5039V15.5938Z" fill="#D6D6D6"/>
<path d="M82.3314 10.7615C82.3187 10.8052 82.2177 12.474 82.104 14.4677C81.9903 16.4615 81.8766 18.1552 81.845 18.224C81.744 18.499 81.485 18.624 81.024 18.624H80.5882V19.5552C80.5882 20.649 80.4935 20.5427 81.5293 20.6177C82.6472 20.7052 83.1903 20.549 83.6829 20.024C84.0114 19.674 84.1629 19.3302 84.2514 18.774C84.3145 18.3802 84.6303 13.4177 84.6303 12.8552V12.624H86.1461H87.6619V16.5615V20.499H88.9566H90.2514V15.5927V10.6865H86.304C83.1966 10.6865 82.3503 10.7052 82.3314 10.7615Z" fill="#D6D6D6"/>
<path d="M91.957 15.5938V20.5L93.3212 20.4875L94.6855 20.4688L96.3655 17.4813L98.0518 14.5L98.0707 17.5L98.0833 20.5H99.3781H100.673V15.5938V10.6875H99.3023L97.9255 10.6937L96.2581 13.6625C95.3423 15.2937 94.5655 16.6437 94.5339 16.6625C94.5086 16.6812 94.4833 15.3438 94.4833 13.6937V10.6875H93.2202H91.957V15.5938Z" fill="#D6D6D6"/>
<path d="M113.453 10.7826C112.726 10.9764 112.322 11.2951 112.031 11.9076C111.754 12.5076 111.716 12.9951 111.741 16.0326C111.766 18.6701 111.773 18.8014 111.905 19.1951C112.069 19.6889 112.442 20.1326 112.859 20.3389C113.389 20.6014 113.756 20.6514 115.076 20.6389C116.225 20.6264 118.808 20.4826 119.421 20.4014L119.686 20.3639V19.4326C119.686 18.9201 119.667 18.5014 119.642 18.5014C119.61 18.5014 118.966 18.5451 118.202 18.5951C116.257 18.7264 114.773 18.7201 114.577 18.5889C114.267 18.3764 114.255 18.2389 114.255 15.7389C114.255 14.3389 114.28 13.3139 114.318 13.1764C114.356 13.0514 114.469 12.8764 114.577 12.7889L114.773 12.6264H117.229H119.686V11.6576V10.6889L116.737 10.6951C114.4 10.6951 113.711 10.7139 113.453 10.7826Z" fill="#D6D6D6"/>
</g>
<defs>
<clipPath id="clip0_746_2203">
<rect width="120" height="32" fill="white" transform="translate(0 0.5)"/>
</clipPath>
</defs>
</svg>
