<svg width="93" height="26" viewBox="0 0 93 26" fill="none" xmlns="http://www.w3.org/2000/svg">
<path fill-rule="evenodd" clip-rule="evenodd" d="M90.3882 23.3647C90.3882 23.3647 88.4029 23.6092 86.7568 23.6092C85.1106 23.6092 83.0039 23.4136 83.0039 23.4136V17.2512H90.3882V23.3647ZM90.3882 2.30993C90.3882 2.30993 88.6453 2.08984 86.6601 2.08984C84.6748 2.08984 83.0039 2.28548 83.0039 2.28548V8.79021H90.3882V2.30993Z" fill="#454545"/>
<path fill-rule="evenodd" clip-rule="evenodd" d="M71.4609 12.188L80.5157 23.4122H71.2433L65.1905 15.4647H62.479V23.4122H54.9738V2.28416H62.479V9.91376H65.2871L71.3157 2.28416H79.9833L71.4609 12.188ZM26.3326 2.28416H2.70312V23.4122H10.281V8.25088H18.7789V23.4122H26.3568V2.28416H26.3326ZM30.1337 7.88409C30.1337 7.88409 35.6295 7.51729 38.4621 7.51729C41.2947 7.51729 44.6116 7.88409 44.6116 7.88409C44.6116 7.88409 44.7568 8.76442 44.8779 10.1339H35.1452V15.5137H44.8537C44.7568 16.6875 44.5631 17.7634 44.5631 17.7634C44.5631 17.7634 42.9652 18.1302 38.9221 18.1302C34.8789 18.1302 30.1337 17.7634 30.1337 17.7634L29.0684 23.3878C29.0684 23.3878 35.8473 23.9503 40.4957 23.9503C45.1442 23.9503 50.2286 23.3878 50.2286 23.3878C50.2286 23.3878 51.899 18.6193 51.899 12.5792C51.899 6.53913 50.2286 2.2597 50.2286 2.2597C50.2286 2.2597 44.9263 1.69727 40.5442 1.69727C36.1621 1.69727 29.0684 2.2597 29.0684 2.2597L30.1337 7.88409Z" fill="#454545"/>
</svg>
