<svg width="120" height="37" viewBox="0 0 120 37" fill="none" xmlns="http://www.w3.org/2000/svg">
<g clip-path="url(#clip0_746_258)">
<path fill-rule="evenodd" clip-rule="evenodd" d="M31.0078 15.8906H33.9385V24.4441C34.5088 24.146 35.0548 23.8132 35.5581 23.4701C35.7306 23.3517 35.9011 23.2312 36.0696 23.1087C36.5486 22.7534 37.0032 22.3022 37.4172 21.7999V15.8906H40.3419V28.3707H37.4172V25.7346C36.3131 26.5105 35.1238 27.1762 33.9385 27.6682V28.3707H31.0078V15.8906ZM41.0948 17.9407H43.5385V21.3772H46.4712V17.9407H48.9148V28.3707H46.4712V23.8356H43.5385V28.3707H41.0948V17.9407ZM57.2686 28.3625L57.2665 25.5488C55.4521 24.4686 53.0369 22.5615 52.5518 20.3481L57.2686 20.3379V17.9407H49.5988C49.203 22.0265 53.7655 27.997 57.2686 28.3625ZM65.257 17.9407H58.0926V20.3481H60.453V28.3645H62.8966V20.3481H65.257V17.9407ZM66.01 17.9407H73.8137C73.9903 20.9586 71.0576 25.1547 68.4536 26.0368V28.3707H66.01V17.9407ZM71.2646 20.3481H68.4536V23.4824C69.5577 22.6942 70.7491 21.5916 71.2646 20.3481ZM74.7392 28.3645L74.7859 26.0429C75.8758 25.5038 76.852 24.8504 77.7065 24.1031C76.0544 22.149 74.7595 19.7784 74.4815 17.9407H76.9494C77.4893 19.6273 78.3072 21.1097 79.3565 22.3552C80.347 21.0709 81.0614 19.5231 81.4734 17.9407H83.8947C83.8439 21.8448 78.0495 28.2992 74.7392 28.3645ZM92.5671 17.9407H95.0107V28.3707H92.5671V21.4772C91.4325 22.1715 90.503 23.3292 90.0098 24.7116H89.6262C89.133 23.3292 88.2035 22.1715 87.0689 21.4772V28.3707H84.6253V17.9407H87.0689V18.6063C88.2867 19.4435 89.3279 20.8667 89.817 22.0612C90.3081 20.8667 91.3493 19.4435 92.5671 18.6063V17.9407ZM103.519 25.7611C102.579 25.2057 101.737 24.5319 101.014 23.756H103.519V21.3486H99.3296C99.1652 21.0239 99.0171 20.6911 98.8831 20.3481H103.519V17.9407H95.8327C95.4552 21.7325 100.219 27.9296 103.519 28.3421V25.7611ZM104.416 17.9407H106.859V21.3772H109.79V17.9407H112.234V28.3707H109.79V23.8356H106.859V28.3707H104.416V17.9407ZM120.039 17.9407H112.875V20.3481H115.235V28.3645H117.679V20.3481H120.039V17.9407Z" fill="white"/>
<path fill-rule="evenodd" clip-rule="evenodd" d="M2.78455 0.660156H24.702C26.2628 0.660156 27.5394 1.94451 27.5394 3.51268V25.5651C27.5394 27.1333 26.2628 28.4176 24.702 28.4176H2.78455C1.22583 28.4176 -0.0507812 27.1333 -0.0507812 25.5651V3.51268C-0.0507812 1.94451 1.22583 0.660156 2.78455 0.660156Z" fill="#8A8A8A"/>
<path fill-rule="evenodd" clip-rule="evenodd" d="M16.8827 21.4695C14.9303 22.8396 12.7404 23.8973 10.7148 24.3547V21.0203C12.164 20.5813 13.609 19.8074 14.8349 18.9723C15.0236 18.8437 15.2124 18.7109 15.3971 18.5741C15.9248 18.1841 16.4261 17.6859 16.8827 17.1326V12.5322C18.8758 10.1534 19.3954 7.59284 20.1037 4.64844V24.3772H16.8827V21.4695Z" fill="white"/>
<path fill-rule="evenodd" clip-rule="evenodd" d="M7.49609 7.88892V4.64844H20.1059C19.3671 7.72148 18.8333 10.378 16.613 12.8446C14.8797 14.7701 12.773 16.4199 10.717 17.3286V24.3772H7.49609V7.88892ZM15.9107 7.88892H10.717V13.6879C11.8333 12.9936 12.8826 12.0952 13.7655 11.1845C13.9258 11.0191 14.0841 10.8517 14.2384 10.6802C14.9183 9.92264 15.4825 8.92416 15.9107 7.88892Z" fill="white"/>
<path fill-rule="evenodd" clip-rule="evenodd" d="M58.0686 13.1622L58.0666 10.3485C56.2542 9.26628 53.839 7.36119 53.3519 5.14778L58.0686 5.13757V2.74039H50.4009C50.0051 6.82622 54.5656 12.7967 58.0686 13.1622ZM40.2956 2.74039C40.8517 5.74197 42.3779 7.99214 43.135 9.20706C42.796 9.76654 40.9674 10.8038 40.4661 10.8937V13.1704H40.8375C45.0042 12.3209 49.3313 7.60418 49.5586 2.74039H47.1332C47.1231 2.74244 47.115 2.74652 47.1048 2.7506C47.0419 4.09825 45.9256 6.69349 45.1524 7.2591C44.2837 6.73229 43.1654 4.41679 42.9239 2.74039H42.8082C42.7778 2.74039 42.7514 2.74244 42.7514 2.74039H40.2956ZM33.6913 3.33458L36.829 3.36725C36.4211 4.4515 34.8482 6.46072 33.6933 6.72616L33.6913 3.33458ZM33.7015 9.71141C37.7687 7.51229 39.7334 5.12736 39.9566 0.680127H31.1016L31.1056 13.1642L32.3964 13.1704H33.6893L33.7015 9.71141ZM75.933 2.74039H78.3847V9.88905C78.8597 9.63994 79.3163 9.36224 79.7385 9.07434C79.8826 8.97633 80.0246 8.87628 80.1647 8.77214C80.5645 8.47606 80.9461 8.09831 81.2911 7.67769V2.74039H83.7347V13.1704H81.2911V10.9692C80.3676 11.6185 79.3731 12.1739 78.3847 12.5843V13.1642H75.933V2.74039ZM86.7872 0.0410156H89.9392V1.85013H86.7872V0.0410156ZM84.4613 2.74039H86.913V9.88905C87.388 9.63994 87.8446 9.36224 88.2668 9.07434C88.4109 8.97633 88.553 8.87628 88.693 8.77214C89.0928 8.47606 89.4744 8.09831 89.8194 7.67769V2.74039H92.263V13.1704H89.8194V10.9692C88.896 11.6185 87.9035 12.1739 86.913 12.5843V13.1704H84.4613V2.74039ZM67.2829 2.82411H69.7347V6.16056C70.8834 5.67051 72.1113 3.99003 72.7912 2.74039H75.0684C74.701 4.54543 72.7141 6.63428 71.5674 7.51638C72.9962 8.59041 74.833 11.5083 75.0989 13.1704H72.6532C72.2818 12.0698 70.4592 9.66036 69.7347 9.25811V13.1642H67.2829V2.82411ZM66.3554 13.1622V10.3485C64.541 9.26628 62.1258 7.36119 61.6407 5.14778L66.3554 5.13757V2.74039H58.6876C58.2919 6.82622 62.8523 12.7967 66.3554 13.1622Z" fill="white"/>
<path d="M31.9149 30.4004H31.0625V36.8038H31.9149V36.4199C32.2884 36.8528 32.7511 36.9181 33.0109 36.9181C34.1475 36.9181 34.7969 35.9707 34.7969 34.9497C34.7969 33.7491 33.977 33.014 33.0028 33.014C32.7349 33.014 32.264 33.0794 31.9149 33.5367V30.4004ZM32.8972 33.7818C33.5224 33.7818 33.9202 34.3127 33.9202 34.9661C33.9202 35.6113 33.5224 36.1422 32.8972 36.1422C32.3614 36.1422 31.8662 35.7501 31.8662 34.9742C31.8662 34.1738 32.3614 33.7818 32.8972 33.7818Z" fill="white"/>
<path d="M38.3174 35.4313C38.2362 35.6436 38.0901 35.8315 37.9439 35.9458C37.8059 36.0602 37.603 36.1418 37.3594 36.1418C36.9048 36.1418 36.3933 35.8396 36.3608 35.1617H38.9993V35.0311C38.9993 34.7615 38.975 34.1408 38.6583 33.6834C38.3985 33.3077 37.9358 33.0137 37.2782 33.0137C36.1904 33.0137 35.4922 33.8223 35.4922 34.9739C35.4922 36.3134 36.4096 36.9178 37.3269 36.9178C37.7247 36.9178 38.2037 36.7789 38.5528 36.4685C38.7476 36.3052 38.9181 36.0602 39.0318 35.8396L38.3174 35.4313ZM36.4258 34.4593C36.5395 34.0591 36.8642 33.7814 37.2782 33.7814C37.7004 33.7814 38.0332 34.0428 38.1306 34.4593H36.4258Z" fill="white"/>
<path d="M39.9258 30.4004V36.8038H40.7782V30.4004H39.9258Z" fill="white"/>
<path d="M43.3985 33.8958V33.1035H42.7409V31.7559H41.8885V33.1035H41.5312V33.8958H41.8885V36.8034H42.7409V33.8958H43.3985Z" fill="white"/>
<path d="M45.7459 33.0137C44.6337 33.0137 43.7812 33.8223 43.7812 34.9576C43.7812 36.0928 44.6337 36.9178 45.7459 36.9178C46.85 36.9178 47.7105 36.0928 47.7105 34.9576C47.7105 33.8223 46.85 33.0137 45.7459 33.0137ZM45.7459 36.1418C45.0721 36.1418 44.6499 35.6763 44.6499 34.9657C44.6499 34.1245 45.202 33.7814 45.7459 33.7814C46.2898 33.7814 46.8337 34.1245 46.8337 34.9657C46.8337 35.6763 46.4197 36.1418 45.7459 36.1418Z" fill="white"/>
<path d="M50.3709 33.0137C49.2587 33.0137 48.4062 33.8223 48.4062 34.9576C48.4062 36.0928 49.2587 36.9178 50.3709 36.9178C51.475 36.9178 52.3355 36.0928 52.3355 34.9576C52.3355 33.8223 51.475 33.0137 50.3709 33.0137ZM50.3709 36.1418C49.6971 36.1418 49.2749 35.6763 49.2749 34.9657C49.2749 34.1245 49.827 33.7814 50.3709 33.7814C50.9148 33.7814 51.4587 34.1245 51.4587 34.9657C51.4587 35.6763 51.0447 36.1418 50.3709 36.1418Z" fill="white"/>
<path d="M53.2227 30.4004V36.8038H54.0751V30.4004H53.2227Z" fill="white"/>
<path d="M57.2927 33.7406C57.1304 33.3567 56.7894 33.0137 56.2455 33.0137C55.6122 33.0137 55.0927 33.4139 55.0927 34.1163C55.0927 34.4675 55.2226 34.7207 55.5311 34.9249C55.7259 35.0474 55.8964 35.1127 56.2617 35.2843C56.4403 35.3741 56.6595 35.4803 56.6595 35.7498C56.6595 35.9867 56.489 36.1418 56.2292 36.1418C55.9045 36.1418 55.7015 35.905 55.6285 35.6681L54.9141 36.003C55.2388 36.8933 56.0587 36.9178 56.1805 36.9178C56.9436 36.9178 57.5282 36.3624 57.5282 35.66C57.5282 35.4149 57.4551 35.1127 57.0817 34.835C56.968 34.7615 56.7975 34.6554 56.3835 34.4593C56.1318 34.3368 55.8964 34.247 55.8964 34.0183C55.8964 33.8468 56.0587 33.7814 56.1724 33.7814C56.351 33.7814 56.5053 33.9039 56.5864 34.1163L57.2927 33.7406Z" fill="white"/>
<path d="M58.3359 36.3782C58.3359 36.6722 58.5714 36.9091 58.8555 36.9091C59.1478 36.9091 59.3832 36.6722 59.3832 36.3782C59.3832 36.0923 59.1478 35.8555 58.8555 35.8555C58.5714 35.8555 58.3359 36.0923 58.3359 36.3782Z" fill="white"/>
<path d="M60.5 36.8034H61.3524V34.8922C61.3524 34.6554 61.3605 34.345 61.4986 34.1245C61.596 33.9774 61.7502 33.8386 62.0425 33.8386C62.1805 33.8386 62.3266 33.8794 62.5215 34.0101L62.903 33.226C62.6838 33.0872 62.4322 33.0137 62.213 33.0137C61.9045 33.0137 61.6041 33.1362 61.3524 33.4384V33.1035H60.5V36.8034Z" fill="white"/>
<path d="M63.3984 33.1035V35.2516C63.3984 35.7253 63.4471 36.1173 63.7881 36.4604C64.121 36.8034 64.5756 36.9178 64.949 36.9178C65.3631 36.9178 65.8096 36.7953 66.1424 36.4604C66.4834 36.1173 66.5402 35.7253 66.5402 35.2516V33.1035H65.6797V35.2271C65.6797 35.4394 65.6716 35.7008 65.5254 35.8887C65.4118 36.0357 65.2088 36.1418 64.9653 36.1418C64.7217 36.1418 64.5188 36.0357 64.4051 35.8887C64.259 35.7008 64.2509 35.4394 64.2509 35.2271V33.1035H63.3984Z" fill="white"/>
</g>
<defs>
<clipPath id="clip0_746_258">
<rect width="120" height="37" fill="white"/>
</clipPath>
</defs>
</svg>
