<svg width="92" height="26" viewBox="0 0 92 26" fill="none" xmlns="http://www.w3.org/2000/svg">
<g clip-path="url(#clip0_3430_1109)">
<path fill-rule="evenodd" clip-rule="evenodd" d="M16.5911 6.55053H13.9934C8.78536 6.55053 4.33748 19.4622 10.4834 19.4499H14.4368C16.7179 19.4499 18.403 20.2627 17.6552 22.4625L16.6294 25.4875H12.4348L9.02607 25.4497C4.66676 25.4125 1.85367 23.3001 0.840282 20.1003C-0.262249 16.638 1.29616 9.42485 5.78207 4.80016C8.3922 2.11289 12.0038 0.5 16.6294 0.5H25.1825L23.8392 4.28802C23.0323 6.58193 21.4257 6.56369 20.4027 6.55208C20.3332 6.5513 20.2663 6.55053 20.2026 6.55053H16.5911ZM63.8441 9.98794H50.0697C47.7893 9.98794 46.7625 10.6124 46.3443 11.8999L45.0519 16.0248H58.8264C61.107 16.0248 62.1335 15.4 62.5519 14.1123L63.8441 9.98794ZM46.712 19.4622H60.4862L59.1935 23.588C58.7754 24.8751 57.7489 25.4999 55.4681 25.4999H41.6935L42.9865 21.375C43.4047 20.0877 44.4308 19.4622 46.712 19.4622ZM53.2635 0.524914H67.0375L65.7451 4.65064C65.3267 5.93728 64.3002 6.56284 62.0196 6.56284H48.2451L49.5375 2.43798C49.9557 1.15047 50.9825 0.524914 53.2635 0.524914ZM32.4053 6.53809H35.8395C38.7667 6.53809 38.0951 10.1379 36.6124 13.6505C35.3069 16.7378 33.0009 19.4747 30.2511 19.4747H24.5363C22.2551 19.4747 21.2034 20.1002 20.7598 21.3881L19.3535 25.5H23.5479L27.641 25.4622C31.2776 25.4373 34.2428 25.1747 37.7275 22.0872C41.4027 18.825 45.6854 10.3628 44.9504 5.47544C44.3804 1.63758 42.2895 0.51248 37.2205 0.51248H27.9958L22.6228 16.0123H26.0314H26.0835C28.0768 16.0125 29.0945 16.0126 30.1625 13.1752L32.4053 6.53809ZM68.0386 25.4999H61.5378L70.2814 0.500012H76.7822L73.0565 11.2629H73.1322C73.9087 10.2974 74.6949 9.47951 75.4734 8.6698C75.5718 8.56742 75.6701 8.46518 75.7683 8.36278L83.2574 0.500012H91.2278L78.8981 11.5376L84.0301 25.4999H79.0503C77.4538 25.4999 76.7314 24.5377 76.0215 22.338L73.7278 15.2248L70.8262 17.6376L68.0386 25.4999Z" fill="#454545"/>
</g>
<defs>
<clipPath id="clip0_3430_1109">
<rect width="91" height="25" fill="white" transform="translate(0.5 0.5)"/>
</clipPath>
</defs>
</svg>
