<svg width="18" height="18" viewBox="0 0 18 18" fill="none" xmlns="http://www.w3.org/2000/svg">
<path fill-rule="evenodd" clip-rule="evenodd" d="M9 0C4.02963 0 0 4.02963 0 9C0 13.9704 4.02963 18 9 18C13.9704 18 18 13.9704 18 9C18 4.02963 13.9704 0 9 0ZM1.54226 9C1.54226 8.02063 1.73516 7.05086 2.10994 6.14605C2.48473 5.24123 3.03406 4.4191 3.72658 3.72658C4.4191 3.03406 5.24123 2.48473 6.14605 2.10994C7.05086 1.73516 8.02063 1.54226 9 1.54226C9.97936 1.54226 10.9491 1.73516 11.854 2.10994C12.7588 2.48473 13.5809 3.03406 14.2734 3.72658C14.9659 4.4191 15.5153 5.24123 15.8901 6.14605C16.2648 7.05086 16.4577 8.02063 16.4577 9C16.4577 10.9779 15.672 12.8748 14.2734 14.2734C12.8748 15.672 10.9779 16.4577 9 16.4577C7.02208 16.4577 5.12518 15.672 3.72658 14.2734C2.32798 12.8748 1.54226 10.9779 1.54226 9Z" fill="black"/>
<path d="M12.9895 6.12079L12.0169 12.3481C12.0034 12.434 11.9689 12.5152 11.9164 12.5844C11.8639 12.6536 11.7949 12.7087 11.7159 12.7447C11.6368 12.7807 11.55 12.7965 11.4633 12.7907C11.3766 12.7848 11.2927 12.7576 11.2191 12.7113L7.96225 10.6706C7.89456 10.6283 7.83742 10.571 7.7952 10.5033C7.75298 10.4355 7.72678 10.359 7.71861 10.2795C7.71043 10.2001 7.72049 10.1199 7.74803 10.0449C7.77556 9.96996 7.81984 9.90228 7.87748 9.84703L10.5811 7.25579C10.6115 7.22724 10.5758 7.17995 10.5401 7.20136L6.62113 9.54632C6.38819 9.68638 6.11157 9.73503 5.84483 9.68284L4.42607 9.40891C3.9139 9.30986 3.8434 8.60673 4.32435 8.40775L11.9107 5.27132C12.0399 5.21755 12.1812 5.19922 12.3198 5.21822C12.4585 5.23723 12.5896 5.29287 12.6996 5.37943C12.8096 5.46598 12.8946 5.58031 12.9457 5.71062C12.9968 5.84094 13.0113 5.98253 12.9895 6.12079Z" fill="black"/>
</svg>
