<svg width="18" height="18" viewBox="0 0 18 18" fill="none" xmlns="http://www.w3.org/2000/svg">
<g clip-path="url(#clip0_3761_3580)">
<path d="M13.5 0.75H4.5C2.42893 0.75 0.75 2.42893 0.75 4.5V13.5C0.75 15.5711 2.42893 17.25 4.5 17.25H13.5C15.5711 17.25 17.25 15.5711 17.25 13.5V4.5C17.25 2.42893 15.5711 0.75 13.5 0.75Z" stroke="black" stroke-width="1.6" stroke-linecap="round" stroke-linejoin="round"/>
<path d="M5.25 6.375C5.33928 7.58007 5.74512 8.72617 6.41431 9.66303C7.0835 10.5999 7.98479 11.2838 9 11.625V6.375M12.75 6.375C12.25 7.625 11.25 8.5 9.75 9M9.75 9C11.25 9.5 12.25 10.375 12.75 11.625M9.75 9H9" stroke="black" stroke-width="1.6" stroke-linecap="round" stroke-linejoin="round"/>
</g>
<defs>
<clipPath id="clip0_3761_3580">
<rect width="18" height="18" fill="white"/>
</clipPath>
</defs>
</svg>
